<svg width="22" height="16" viewBox="0 0 22 16" fill="none" xmlns="http://www.w3.org/2000/svg">
<path d="M21.8657 8.3247L14.9907 15.1997C14.8117 15.3787 14.5216 15.3787 14.3426 15.1997C14.1636 15.0206 14.1636 14.7306 14.3426 14.5516L20.4353 8.45897H0.458348C0.205004 8.45897 0 8.25397 0 8.00063C0 7.74728 0.205004 7.54228 0.458348 7.54228H20.4353L14.3426 1.4497C14.1636 1.27065 14.1636 0.980608 14.3426 0.8016C14.4321 0.712096 14.5494 0.667322 14.6667 0.667322C14.784 0.667322 14.9012 0.712096 14.9908 0.8016L21.8658 7.6766C22.0448 7.85561 22.0448 8.14565 21.8657 8.3247Z" fill="#1C2333"/>
</svg>
