<svg width="61" height="31" viewBox="0 0 61 31" fill="none" xmlns="http://www.w3.org/2000/svg">
<path d="M45.1758 20.543C44.8828 20.1797 44.4375 19.957 43.9453 19.957C43.3125 19.957 42.7617 20.332 42.5156 20.8711C42.4219 21.0703 42.3633 21.293 42.3633 21.5391C42.3633 22.4062 43.0664 23.1211 43.9453 23.1211C44.8125 23.1211 45.5273 22.418 45.5273 21.5391C45.5273 21.1523 45.3984 20.8125 45.1758 20.543ZM43.9453 22.1719C43.5938 22.1719 43.3008 21.8789 43.3008 21.5273C43.3008 21.1758 43.5938 20.8828 43.9453 20.8828C44.1211 20.8828 44.2852 20.9531 44.4023 21.0703C44.5195 21.1875 44.5898 21.3516 44.5898 21.5273C44.5898 21.8906 44.2969 22.1719 43.9453 22.1719Z" fill="#2F3A5A"/>
<path d="M17.8125 20.8711C17.5664 20.332 17.0156 19.957 16.3828 19.957C16.3242 19.957 16.2539 19.957 16.1953 19.9688C15.7734 20.0156 15.4102 20.2383 15.1523 20.543C14.9297 20.8125 14.8008 21.1523 14.8008 21.5273C14.8008 22.3945 15.5039 23.1094 16.3828 23.1094C17.25 23.1094 17.9648 22.4062 17.9648 21.5273C17.9648 21.293 17.9062 21.0703 17.8125 20.8711ZM16.3828 22.1719C16.0312 22.1719 15.7383 21.8789 15.7383 21.5273C15.7383 21.1758 16.0312 20.8828 16.3828 20.8828C16.5586 20.8828 16.7227 20.9531 16.8398 21.0703C16.957 21.1875 17.0273 21.3516 17.0273 21.5273C17.0273 21.8906 16.7344 22.1719 16.3828 22.1719Z" fill="#2F3A5A"/>
<path d="M60.1641 16.2314C60.0469 16.1025 59.8711 16.0322 59.6953 16.0439L37.8281 16.8994C37.5352 16.208 37.1484 15.5517 36.6797 14.9424L42.3281 13.9111H42.375C42.8438 13.7939 43.1719 13.3838 43.1719 12.915C43.1484 12.3525 42.6797 11.9072 42.1172 11.9072L32.8359 12.1299C32.6133 12.0478 32.3789 11.9775 32.0977 11.9072L31.2422 0.973613V0.938456C31.1719 0.387675 30.7031 -0.0224815 30.1641 0.000956034C29.6016 0.000956034 29.1445 0.422831 29.0859 0.985332L28.2422 11.9072C27.9609 11.9775 27.7149 12.0478 27.4805 12.1299L18.1758 11.9072C17.707 11.9189 17.3086 12.2471 17.2031 12.7041C17.1445 12.9736 17.1914 13.2549 17.332 13.4775C17.4727 13.7119 17.707 13.8642 17.9648 13.9346H18L23.625 14.9541C23.4141 15.2236 23.2148 15.5166 23.0391 15.8096C22.8281 16.1611 22.6406 16.5244 22.4766 16.9111L0.65625 16.0439C0.480469 16.0322 0.316406 16.0908 0.1875 16.2197C0.0585938 16.3486 0 16.501 0 16.6767V18.3056C0 18.6338 0.246094 18.9033 0.550781 18.9385L13.2539 20.4736C13.1367 20.8135 13.0781 21.1767 13.0781 21.54C13.0781 23.3564 14.5547 24.833 16.3711 24.833C17.25 24.833 18.0703 24.4932 18.6914 23.8721C19.3008 23.2627 19.6523 22.4189 19.6523 21.5635C19.6641 21.458 19.6641 21.3642 19.6523 21.2588L21.75 21.5049C21.9727 23.708 23.0039 26.0049 24.6094 27.8096C26.2617 29.6846 28.2774 30.751 30.1406 30.751C33.9492 30.751 38.0625 26.1807 38.5313 21.4932L40.6641 21.2353C40.6524 21.3291 40.6524 21.4228 40.6524 21.5283C40.6524 23.3447 42.1289 24.8213 43.9453 24.8213C44.8125 24.8213 45.6445 24.4814 46.2774 23.8603C46.8867 23.251 47.2383 22.4072 47.2383 21.54C47.2266 21.1533 47.168 20.8017 47.0508 20.4736L59.7539 18.9267C60.0703 18.8799 60.3047 18.6103 60.3047 18.2939V16.665C60.3281 16.5127 60.2696 16.3603 60.1641 16.2314ZM59.0625 17.3447V17.7549L46.3594 19.3017C45.7383 18.6338 44.8594 18.2588 43.9453 18.2588C42.75 18.2588 41.6719 18.8916 41.086 19.9228L38.5781 20.2275C38.543 19.5127 38.4375 18.8213 38.25 18.1533L59.0625 17.3447ZM42 20.9892C42.0938 20.6377 42.293 20.3096 42.5742 20.0517C42.9492 19.7002 43.4297 19.5127 43.9453 19.5127C44.25 19.5127 44.5547 19.583 44.836 19.7236L44.9297 19.7822C45.0117 19.8291 45.082 19.876 45.1524 19.9346L45.1641 19.9463C45.1758 19.958 45.1875 19.9697 45.1992 19.9697C45.2578 20.0166 45.3164 20.0635 45.3633 20.1221C45.3985 20.1572 45.4219 20.1807 45.4453 20.2158C45.4688 20.2392 45.4922 20.2744 45.5156 20.2978C45.586 20.3799 45.6445 20.4736 45.6914 20.5557C45.8672 20.8721 45.9609 21.2002 45.9609 21.5517C45.9609 22.665 45.0469 23.5791 43.9336 23.5791C42.8203 23.5791 41.9063 22.665 41.9063 21.5517C41.918 21.3291 41.9414 21.1533 42 20.9892ZM37.2891 21.4463L37.2656 21.6338C36.7383 25.6416 33.2695 29.5205 30.1641 29.5205C27.0117 29.5205 23.4844 25.5361 23.0391 21.458C23.0039 21.2236 22.9922 20.9658 22.9922 20.6611V20.5322C22.9922 20.4385 22.9922 20.3447 23.0039 20.251C23.0391 19.5947 23.1563 18.9267 23.3438 18.2822L23.3672 18.2002C23.4727 17.8603 23.5899 17.5439 23.7188 17.2744L23.7422 17.2275V17.2158C24.1055 16.4306 24.5742 15.7275 25.1484 15.1299C25.3945 14.8603 25.6641 14.6142 26.0039 14.3564C26.5195 13.9463 27.0938 13.6299 27.7031 13.3838L27.7383 13.3721C27.9492 13.29 28.1602 13.2197 28.3711 13.1611C28.6406 13.0791 28.9219 13.0205 29.2969 12.9736C29.3203 12.9736 29.3438 12.9736 29.3672 12.9619C29.3789 12.9619 29.3906 12.9619 29.4024 12.9619H29.5664V12.9385C29.7539 12.915 29.9414 12.915 30.1758 12.915C30.4688 12.915 30.7149 12.9267 30.9375 12.9619H30.9609C30.9727 12.9619 30.9727 12.9619 30.9844 12.9619C30.9961 12.9619 31.0195 12.9619 31.0313 12.9736H31.043C31.418 13.0322 31.7109 13.0908 31.9805 13.1728L32.1914 13.2314C32.2383 13.2431 32.2852 13.2666 32.332 13.2783L32.5899 13.3838C33.2109 13.6299 33.7852 13.958 34.3125 14.3681L34.3711 14.415H34.3945C34.5234 14.5205 34.6524 14.626 34.7813 14.7431C34.8984 14.8486 35.0156 14.9658 35.168 15.1181L35.2031 15.1533C35.7774 15.751 36.2461 16.4658 36.6211 17.2627L36.6328 17.2861C36.7734 17.5791 36.8906 17.9072 36.9961 18.2588L37.0078 18.2822C37.2188 18.9853 37.3359 19.7471 37.3477 20.5322V20.6728C37.3359 20.7432 37.3359 20.8017 37.3359 20.8721L37.3242 21.0596V21.083C37.3125 21.1885 37.3008 21.2939 37.3008 21.3877V21.4228C37.2891 21.4228 37.2891 21.4346 37.2891 21.4463ZM30.1641 11.6377C29.9297 11.6377 29.7188 11.6494 29.5195 11.6611L30.1524 3.22361L30.8086 11.6611C30.5859 11.6494 30.375 11.6377 30.1641 11.6377ZM35.6719 13.8291C35.4727 13.6533 35.2734 13.4775 35.0625 13.3135L38.9883 13.2197L35.6719 13.8291ZM24.6328 13.8291L21.3516 13.2314L25.2422 13.3252C25.0313 13.4892 24.832 13.6533 24.6328 13.8291ZM14.6133 20.5439C14.8008 20.2158 15.0703 19.9463 15.3984 19.7588C15.6914 19.5947 16.0313 19.5127 16.3711 19.5127C16.8867 19.5127 17.3555 19.7002 17.7422 20.0517C17.7539 20.0635 17.7656 20.0752 17.7773 20.0869L17.8008 20.1103C18.0352 20.3447 18.2227 20.6611 18.3164 20.9892C18.3516 21.1416 18.3984 21.3291 18.3984 21.54C18.3984 22.0674 18.1992 22.5713 17.8242 22.958C17.4375 23.3447 16.9336 23.5557 16.3828 23.5557C15.2695 23.5557 14.3555 22.6416 14.3555 21.5283C14.3555 21.1885 14.4492 20.8486 14.6133 20.5439ZM16.3828 18.2471C15.4805 18.2471 14.6133 18.6221 13.9805 19.2783L1.26563 17.7314V17.333L22.043 18.1533C21.8555 18.8447 21.75 19.5478 21.7148 20.2392L19.2539 19.9463C18.6797 18.8916 17.5898 18.2471 16.3828 18.2471Z" fill="#2F3A5A"/>
<path d="M36.2459 18.6328C35.8123 17.6133 35.3201 16.6289 34.7693 15.668C34.7459 15.6211 34.7107 15.5742 34.6873 15.5273C34.617 15.4102 34.4998 15.3281 34.3591 15.3047C33.8318 15.2109 33.3045 15.1406 32.7654 15.082C32.531 15.0586 32.2849 15.0352 32.0506 15.0117C31.7341 14.9883 31.4295 14.9648 31.1131 14.9531C30.9373 14.9414 30.7732 14.9414 30.5974 14.9414H30.3396C30.3045 14.9297 30.2693 14.9297 30.2341 14.9297C30.199 14.9297 30.1638 14.9297 30.1287 14.9414H29.8591C29.6482 14.9414 29.4255 14.9531 29.2146 14.9648C28.8982 14.9766 28.5818 15 28.2654 15.0234C28.0427 15.0469 27.8201 15.0586 27.5974 15.082C27.0935 15.1406 26.5896 15.2109 26.0857 15.293C25.9568 15.3164 25.8279 15.3984 25.7576 15.5156C25.7224 15.5742 25.6873 15.6211 25.6638 15.6797C25.1131 16.6289 24.6326 17.6133 24.199 18.6211C24.1521 18.7148 24.1521 18.832 24.1756 18.9258C24.2459 19.1719 24.5037 19.3242 24.7498 19.2539C26.4256 18.7969 28.1599 18.5508 29.8943 18.5273H30.5271C32.2615 18.5508 33.9959 18.7969 35.6716 19.2539C35.7068 19.2656 35.7537 19.2656 35.7888 19.2656C35.8474 19.2656 35.906 19.2539 35.9646 19.2305C36.2341 19.1367 36.3513 18.8672 36.2459 18.6328ZM29.7654 17.5898C29.0506 17.6133 28.324 17.6602 27.6091 17.7539C26.8943 17.8477 26.1795 17.9648 25.4646 18.1172C25.7693 17.4609 26.1091 16.8164 26.4724 16.1719C26.8357 16.1133 27.199 16.0664 27.5506 16.0195C28.0662 15.9609 28.5818 15.9141 29.0974 15.8906C29.3201 15.8789 29.531 15.8672 29.7537 15.8672H29.7654V17.5898ZM30.7029 17.5898V15.8789C30.8787 15.8789 31.0427 15.8906 31.2185 15.8906V15.8789C31.7576 15.9023 32.2849 15.9375 32.8123 16.0078C33.199 16.0547 33.5974 16.1016 33.9841 16.1719C34.3474 16.8047 34.6873 17.4609 34.992 18.1172C33.5857 17.8008 32.1443 17.625 30.7029 17.5898Z" fill="#2F3A5A"/>
</svg>
