<svg width="12" height="16" viewBox="0 0 12 16" fill="none" xmlns="http://www.w3.org/2000/svg">
<path d="M3.9375 8.9375C3.85417 9.02083 3.78125 9.02083 3.71875 8.9375L2.5625 7.78125C2.47917 7.69792 2.47917 7.61458 2.5625 7.53125L2.9375 7.15625C3.02083 7.07292 3.10417 7.07292 3.1875 7.15625L3.84375 7.8125L5.3125 6.3125C5.39583 6.25 5.47917 6.25 5.5625 6.3125L5.9375 6.71875C6.02083 6.80208 6.02083 6.88542 5.9375 6.96875L3.9375 8.9375ZM10.5 2C10.9167 2 11.2708 2.14583 11.5625 2.4375C11.8542 2.72917 12 3.08333 12 3.5V14.5C12 14.9167 11.8542 15.2708 11.5625 15.5625C11.2708 15.8542 10.9167 16 10.5 16H1.5C1.08333 16 0.729167 15.8542 0.4375 15.5625C0.145833 15.2708 0 14.9167 0 14.5V3.5C0 3.08333 0.145833 2.72917 0.4375 2.4375C0.729167 2.14583 1.08333 2 1.5 2H4C4 1.45833 4.19792 0.989583 4.59375 0.59375C4.98958 0.197917 5.45833 0 6 0C6.54167 0 7.01042 0.197917 7.40625 0.59375C7.80208 0.989583 8 1.45833 8 2H10.5ZM6.34375 1.65625C6.26042 1.55208 6.14583 1.5 6 1.5C5.85417 1.5 5.72917 1.55208 5.625 1.65625C5.54167 1.73958 5.5 1.85417 5.5 2C5.5 2.14583 5.54167 2.27083 5.625 2.375C5.72917 2.45833 5.85417 2.5 6 2.5C6.14583 2.5 6.26042 2.45833 6.34375 2.375C6.44792 2.27083 6.5 2.14583 6.5 2C6.5 1.85417 6.44792 1.73958 6.34375 1.65625ZM10.5 14.25V3.75C10.5 3.58333 10.4167 3.5 10.25 3.5H9V4.5C9 4.64583 8.94792 4.77083 8.84375 4.875C8.76042 4.95833 8.64583 5 8.5 5H3.5C3.35417 5 3.22917 4.95833 3.125 4.875C3.04167 4.77083 3 4.64583 3 4.5V3.5H1.75C1.58333 3.5 1.5 3.58333 1.5 3.75V14.25C1.5 14.4167 1.58333 14.5 1.75 14.5H10.25C10.4167 14.5 10.5 14.4167 10.5 14.25ZM2.96875 10.4688C3.11458 10.3229 3.29167 10.25 3.5 10.25C3.70833 10.25 3.88542 10.3229 4.03125 10.4688C4.17708 10.6146 4.25 10.7917 4.25 11C4.25 11.2083 4.17708 11.3854 4.03125 11.5312C3.88542 11.6771 3.70833 11.75 3.5 11.75C3.29167 11.75 3.11458 11.6771 2.96875 11.5312C2.82292 11.3854 2.75 11.2083 2.75 11C2.75 10.7917 2.82292 10.6146 2.96875 10.4688ZM8.75 7.5C8.91667 7.5 9 7.58333 9 7.75V8.25C9 8.41667 8.91667 8.5 8.75 8.5H5.8125L6.65625 7.6875C6.67708 7.66667 6.69792 7.63542 6.71875 7.59375C6.73958 7.53125 6.76042 7.5 6.78125 7.5H8.75ZM8.75 10.5C8.91667 10.5 9 10.5833 9 10.75V11.25C9 11.4167 8.91667 11.5 8.75 11.5H5.25C5.08333 11.5 5 11.4167 5 11.25V10.75C5 10.5833 5.08333 10.5 5.25 10.5H8.75Z" fill="#BEBEBE"/>
</svg>
