<svg width="35" height="35" viewBox="0 0 35 35" fill="none" xmlns="http://www.w3.org/2000/svg">
<path d="M26.7969 33.9062H8.20312C7.1882 33.9051 6.21517 33.5014 5.49751 32.7837C4.77985 32.0661 4.37616 31.0931 4.375 30.0781V4.92188C4.37616 3.90695 4.77985 2.93392 5.49751 2.21626C6.21517 1.4986 7.1882 1.09491 8.20312 1.09375H26.7969C27.8118 1.09491 28.7848 1.4986 29.5025 2.21626C30.2202 2.93392 30.6238 3.90695 30.625 4.92188V30.0781C30.6238 31.0931 30.2202 32.0661 29.5025 32.7837C28.7848 33.5014 27.8118 33.9051 26.7969 33.9062ZM8.20312 2.1875C7.47819 2.18837 6.7832 2.47673 6.27059 2.98934C5.75798 3.50195 5.46962 4.19694 5.46875 4.92188V30.0781C5.46962 30.8031 5.75798 31.4981 6.27059 32.0107C6.7832 32.5233 7.47819 32.8116 8.20312 32.8125H26.7969C27.5218 32.8116 28.2168 32.5233 28.7294 32.0107C29.242 31.4981 29.5304 30.8031 29.5312 30.0781V4.92188C29.5304 4.19694 29.242 3.50195 28.7294 2.98934C28.2168 2.47673 27.5218 2.18837 26.7969 2.1875H8.20312Z" fill="#3A3A3A"/>
<path d="M19.1406 31.7188H15.8594C15.4243 31.7188 15.007 31.5459 14.6993 31.2382C14.3916 30.9305 14.2188 30.5132 14.2188 30.0781V27.8906C14.2188 27.4555 14.3916 27.0382 14.6993 26.7305C15.007 26.4229 15.4243 26.25 15.8594 26.25H19.1406C19.5757 26.25 19.993 26.4229 20.3007 26.7305C20.6084 27.0382 20.7812 27.4555 20.7812 27.8906V30.0781C20.7812 30.5132 20.6084 30.9305 20.3007 31.2382C19.993 31.5459 19.5757 31.7188 19.1406 31.7188ZM15.8594 27.3438C15.7143 27.3438 15.5752 27.4014 15.4727 27.5039C15.3701 27.6065 15.3125 27.7456 15.3125 27.8906V30.0781C15.3125 30.2232 15.3701 30.3623 15.4727 30.4648C15.5752 30.5674 15.7143 30.625 15.8594 30.625H19.1406C19.2857 30.625 19.4248 30.5674 19.5273 30.4648C19.6299 30.3623 19.6875 30.2232 19.6875 30.0781V27.8906C19.6875 27.7456 19.6299 27.6065 19.5273 27.5039C19.4248 27.4014 19.2857 27.3438 19.1406 27.3438H15.8594Z" fill="#3A3A3A"/>
<path d="M11.4844 31.7188H8.20312C7.768 31.7188 7.3507 31.5459 7.04303 31.2382C6.73535 30.9305 6.5625 30.5132 6.5625 30.0781V27.8906C6.5625 27.4555 6.73535 27.0382 7.04303 26.7305C7.3507 26.4229 7.768 26.25 8.20312 26.25H11.4844C11.9195 26.25 12.3368 26.4229 12.6445 26.7305C12.9521 27.0382 13.125 27.4555 13.125 27.8906V30.0781C13.125 30.5132 12.9521 30.9305 12.6445 31.2382C12.3368 31.5459 11.9195 31.7188 11.4844 31.7188ZM8.20312 27.3438C8.05808 27.3438 7.91899 27.4014 7.81643 27.5039C7.71387 27.6065 7.65625 27.7456 7.65625 27.8906V30.0781C7.65625 30.2232 7.71387 30.3623 7.81643 30.4648C7.91899 30.5674 8.05808 30.625 8.20312 30.625H11.4844C11.6294 30.625 11.7685 30.5674 11.8711 30.4648C11.9736 30.3623 12.0312 30.2232 12.0312 30.0781V27.8906C12.0312 27.7456 11.9736 27.6065 11.8711 27.5039C11.7685 27.4014 11.6294 27.3438 11.4844 27.3438H8.20312Z" fill="#3A3A3A"/>
<path d="M26.7969 31.7188H23.5156C23.0805 31.7188 22.6632 31.5459 22.3555 31.2382C22.0479 30.9305 21.875 30.5132 21.875 30.0781V21.3281C21.875 20.893 22.0479 20.4757 22.3555 20.168C22.6632 19.8604 23.0805 19.6875 23.5156 19.6875H26.7969C27.232 19.6875 27.6493 19.8604 27.957 20.168C28.2646 20.4757 28.4375 20.893 28.4375 21.3281V30.0781C28.4375 30.5132 28.2646 30.9305 27.957 31.2382C27.6493 31.5459 27.232 31.7188 26.7969 31.7188ZM23.5156 20.7812C23.3706 20.7812 23.2315 20.8389 23.1289 20.9414C23.0264 21.044 22.9688 21.1831 22.9688 21.3281V30.0781C22.9688 30.2232 23.0264 30.3623 23.1289 30.4648C23.2315 30.5674 23.3706 30.625 23.5156 30.625H26.7969C26.9419 30.625 27.081 30.5674 27.1836 30.4648C27.2861 30.3623 27.3438 30.2232 27.3438 30.0781V21.3281C27.3438 21.1831 27.2861 21.044 27.1836 20.9414C27.081 20.8389 26.9419 20.7812 26.7969 20.7812H23.5156Z" fill="#3A3A3A"/>
<path d="M19.1406 25.1562H15.8594C15.4243 25.1562 15.007 24.9834 14.6993 24.6757C14.3916 24.368 14.2188 23.9507 14.2188 23.5156V21.3281C14.2188 20.893 14.3916 20.4757 14.6993 20.168C15.007 19.8604 15.4243 19.6875 15.8594 19.6875H19.1406C19.5757 19.6875 19.993 19.8604 20.3007 20.168C20.6084 20.4757 20.7812 20.893 20.7812 21.3281V23.5156C20.7812 23.9507 20.6084 24.368 20.3007 24.6757C19.993 24.9834 19.5757 25.1562 19.1406 25.1562ZM15.8594 20.7812C15.7143 20.7812 15.5752 20.8389 15.4727 20.9414C15.3701 21.044 15.3125 21.1831 15.3125 21.3281V23.5156C15.3125 23.6607 15.3701 23.7998 15.4727 23.9023C15.5752 24.0049 15.7143 24.0625 15.8594 24.0625H19.1406C19.2857 24.0625 19.4248 24.0049 19.5273 23.9023C19.6299 23.7998 19.6875 23.6607 19.6875 23.5156V21.3281C19.6875 21.1831 19.6299 21.044 19.5273 20.9414C19.4248 20.8389 19.2857 20.7812 19.1406 20.7812H15.8594Z" fill="#3A3A3A"/>
<path d="M11.4844 25.1562H8.20312C7.768 25.1562 7.3507 24.9834 7.04303 24.6757C6.73535 24.368 6.5625 23.9507 6.5625 23.5156V21.3281C6.5625 20.893 6.73535 20.4757 7.04303 20.168C7.3507 19.8604 7.768 19.6875 8.20312 19.6875H11.4844C11.9195 19.6875 12.3368 19.8604 12.6445 20.168C12.9521 20.4757 13.125 20.893 13.125 21.3281V23.5156C13.125 23.9507 12.9521 24.368 12.6445 24.6757C12.3368 24.9834 11.9195 25.1562 11.4844 25.1562ZM8.20312 20.7812C8.05808 20.7812 7.91899 20.8389 7.81643 20.9414C7.71387 21.044 7.65625 21.1831 7.65625 21.3281V23.5156C7.65625 23.6607 7.71387 23.7998 7.81643 23.9023C7.91899 24.0049 8.05808 24.0625 8.20312 24.0625H11.4844C11.6294 24.0625 11.7685 24.0049 11.8711 23.9023C11.9736 23.7998 12.0312 23.6607 12.0312 23.5156V21.3281C12.0312 21.1831 11.9736 21.044 11.8711 20.9414C11.7685 20.8389 11.6294 20.7812 11.4844 20.7812H8.20312Z" fill="#3A3A3A"/>
<path d="M19.1406 18.5938H15.8594C15.4243 18.5938 15.007 18.4209 14.6993 18.1132C14.3916 17.8055 14.2188 17.3882 14.2188 16.9531V14.7656C14.2188 14.3305 14.3916 13.9132 14.6993 13.6055C15.007 13.2979 15.4243 13.125 15.8594 13.125H19.1406C19.5757 13.125 19.993 13.2979 20.3007 13.6055C20.6084 13.9132 20.7812 14.3305 20.7812 14.7656V16.9531C20.7812 17.3882 20.6084 17.8055 20.3007 18.1132C19.993 18.4209 19.5757 18.5938 19.1406 18.5938ZM15.8594 14.2188C15.7143 14.2188 15.5752 14.2764 15.4727 14.3789C15.3701 14.4815 15.3125 14.6206 15.3125 14.7656V16.9531C15.3125 17.0982 15.3701 17.2373 15.4727 17.3398C15.5752 17.4424 15.7143 17.5 15.8594 17.5H19.1406C19.2857 17.5 19.4248 17.4424 19.5273 17.3398C19.6299 17.2373 19.6875 17.0982 19.6875 16.9531V14.7656C19.6875 14.6206 19.6299 14.4815 19.5273 14.3789C19.4248 14.2764 19.2857 14.2188 19.1406 14.2188H15.8594Z" fill="#3A3A3A"/>
<path d="M11.4844 18.5938H8.20312C7.768 18.5938 7.3507 18.4209 7.04303 18.1132C6.73535 17.8055 6.5625 17.3882 6.5625 16.9531V14.7656C6.5625 14.3305 6.73535 13.9132 7.04303 13.6055C7.3507 13.2979 7.768 13.125 8.20312 13.125H11.4844C11.9195 13.125 12.3368 13.2979 12.6445 13.6055C12.9521 13.9132 13.125 14.3305 13.125 14.7656V16.9531C13.125 17.3882 12.9521 17.8055 12.6445 18.1132C12.3368 18.4209 11.9195 18.5938 11.4844 18.5938ZM8.20312 14.2188C8.05808 14.2188 7.91899 14.2764 7.81643 14.3789C7.71387 14.4815 7.65625 14.6206 7.65625 14.7656V16.9531C7.65625 17.0982 7.71387 17.2373 7.81643 17.3398C7.91899 17.4424 8.05808 17.5 8.20312 17.5H11.4844C11.6294 17.5 11.7685 17.4424 11.8711 17.3398C11.9736 17.2373 12.0312 17.0982 12.0312 16.9531V14.7656C12.0312 14.6206 11.9736 14.4815 11.8711 14.3789C11.7685 14.2764 11.6294 14.2188 11.4844 14.2188H8.20312Z" fill="#3A3A3A"/>
<path d="M26.7969 18.5938H23.5156C23.0805 18.5938 22.6632 18.4209 22.3555 18.1132C22.0479 17.8055 21.875 17.3882 21.875 16.9531V14.7656C21.875 14.3305 22.0479 13.9132 22.3555 13.6055C22.6632 13.2979 23.0805 13.125 23.5156 13.125H26.7969C27.232 13.125 27.6493 13.2979 27.957 13.6055C28.2646 13.9132 28.4375 14.3305 28.4375 14.7656V16.9531C28.4375 17.3882 28.2646 17.8055 27.957 18.1132C27.6493 18.4209 27.232 18.5938 26.7969 18.5938ZM23.5156 14.2188C23.3706 14.2188 23.2315 14.2764 23.1289 14.3789C23.0264 14.4815 22.9688 14.6206 22.9688 14.7656V16.9531C22.9688 17.0982 23.0264 17.2373 23.1289 17.3398C23.2315 17.4424 23.3706 17.5 23.5156 17.5H26.7969C26.9419 17.5 27.081 17.4424 27.1836 17.3398C27.2861 17.2373 27.3438 17.0982 27.3438 16.9531V14.7656C27.3438 14.6206 27.2861 14.4815 27.1836 14.3789C27.081 14.2764 26.9419 14.2188 26.7969 14.2188H23.5156Z" fill="#3A3A3A"/>
<path d="M26.7969 10.9375H8.20312C7.768 10.9375 7.3507 10.7646 7.04303 10.457C6.73535 10.1493 6.5625 9.732 6.5625 9.29688V4.92188C6.5625 4.48675 6.73535 4.06945 7.04303 3.76178C7.3507 3.4541 7.768 3.28125 8.20312 3.28125H26.7969C27.232 3.28125 27.6493 3.4541 27.957 3.76178C28.2646 4.06945 28.4375 4.48675 28.4375 4.92188V9.29688C28.4375 9.732 28.2646 10.1493 27.957 10.457C27.6493 10.7646 27.232 10.9375 26.7969 10.9375ZM8.20312 4.375C8.05808 4.375 7.91899 4.43262 7.81643 4.53518C7.71387 4.63774 7.65625 4.77683 7.65625 4.92188V9.29688C7.65625 9.44192 7.71387 9.58102 7.81643 9.68357C7.91899 9.78613 8.05808 9.84375 8.20312 9.84375H26.7969C26.9419 9.84375 27.081 9.78613 27.1836 9.68357C27.2861 9.58102 27.3438 9.44192 27.3438 9.29688V4.92188C27.3438 4.77683 27.2861 4.63774 27.1836 4.53518C27.081 4.43262 26.9419 4.375 26.7969 4.375H8.20312Z" fill="#3A3A3A"/>
<path d="M25.1562 9.29688C24.7211 9.29688 24.3038 9.12402 23.9962 8.81635C23.6885 8.50867 23.5156 8.09137 23.5156 7.65625V6.5625C23.5156 6.12738 23.6885 5.71008 23.9962 5.4024C24.3038 5.09473 24.7211 4.92188 25.1562 4.92188C25.5914 4.92188 26.0087 5.09473 26.3163 5.4024C26.624 5.71008 26.7969 6.12738 26.7969 6.5625V7.65625C26.7969 8.09137 26.624 8.50867 26.3163 8.81635C26.0087 9.12402 25.5914 9.29688 25.1562 9.29688ZM25.1562 6.01562C25.0112 6.01562 24.8721 6.07324 24.7696 6.1758C24.667 6.27836 24.6094 6.41746 24.6094 6.5625V7.65625C24.6094 7.80129 24.667 7.94039 24.7696 8.04295C24.8721 8.14551 25.0112 8.20312 25.1562 8.20312C25.3013 8.20312 25.4404 8.14551 25.5429 8.04295C25.6455 7.94039 25.7031 7.80129 25.7031 7.65625V6.5625C25.7031 6.41746 25.6455 6.27836 25.5429 6.1758C25.4404 6.07324 25.3013 6.01562 25.1562 6.01562Z" fill="#3A3A3A"/>
</svg>
