<svg width="23" height="23" viewBox="0 0 23 23" fill="none" xmlns="http://www.w3.org/2000/svg">
<path d="M1.5536 22.3784H21.4455C21.6928 22.3784 21.93 22.2802 22.1048 22.1053C22.2797 21.9305 22.3779 21.6933 22.3779 21.446V7.1487C22.3779 7.06627 22.3452 6.98721 22.2869 6.92892C22.2286 6.87064 22.1496 6.83789 22.0671 6.83789H0.931978C0.849546 6.83789 0.770489 6.87064 0.712202 6.92892C0.653913 6.98721 0.621166 7.06627 0.621166 7.1487V21.446C0.621166 21.6933 0.719404 21.9305 0.89427 22.1053C1.06913 22.2802 1.3063 22.3784 1.5536 22.3784ZM21.7563 7.45951V21.446C21.7563 21.5284 21.7236 21.6075 21.6653 21.6658C21.607 21.7241 21.5279 21.7568 21.4455 21.7568H1.5536C1.47117 21.7568 1.39211 21.7241 1.33382 21.6658C1.27554 21.6075 1.24279 21.5284 1.24279 21.446V7.45951H21.7563Z" fill="white"/>
<path d="M0.931978 7.45988H22.0671C22.1496 7.45988 22.2286 7.42713 22.2869 7.36884C22.3452 7.31055 22.3779 7.2315 22.3779 7.14906V3.5965C22.3779 3.3492 22.2797 3.11203 22.1048 2.93717C21.93 2.7623 21.6928 2.66406 21.4455 2.66406H18.2814C18.199 2.66406 18.12 2.69681 18.0617 2.7551C18.0034 2.81339 17.9706 2.89244 17.9706 2.97487C17.9706 3.05731 18.0034 3.13636 18.0617 3.19465C18.12 3.25294 18.199 3.28568 18.2814 3.28568H21.4455C21.5279 3.28568 21.607 3.31843 21.6653 3.37672C21.7236 3.43501 21.7563 3.51406 21.7563 3.5965V6.83825H1.24279V3.5965C1.24279 3.51406 1.27554 3.43501 1.33382 3.37672C1.39211 3.31843 1.47117 3.28568 1.5536 3.28568H4.71766C4.80009 3.28568 4.87914 3.25294 4.93743 3.19465C4.99572 3.13636 5.02847 3.05731 5.02847 2.97487C5.02847 2.89244 4.99572 2.81339 4.93743 2.7551C4.87914 2.69681 4.80009 2.66406 4.71766 2.66406H1.5536C1.3063 2.66406 1.06913 2.7623 0.89427 2.93717C0.719404 3.11203 0.621166 3.3492 0.621166 3.5965V7.14906C0.621166 7.2315 0.653913 7.31055 0.712202 7.36884C0.770489 7.42713 0.849546 7.45988 0.931978 7.45988Z" fill="white"/>
<path d="M6.62673 3.28569H16.3738C16.4562 3.28569 16.5352 3.25294 16.5935 3.19465C16.6518 3.13636 16.6846 3.05731 16.6846 2.97487C16.6846 2.89244 16.6518 2.81339 16.5935 2.7551C16.5352 2.69681 16.4562 2.66406 16.3738 2.66406H6.62673C6.5443 2.66406 6.46525 2.69681 6.40696 2.7551C6.34867 2.81339 6.31592 2.89244 6.31592 2.97487C6.31592 3.05731 6.34867 3.13636 6.40696 3.19465C6.46525 3.25294 6.5443 3.28569 6.62673 3.28569Z" fill="white"/>
<path d="M5.67245 5.3249C6.0076 5.32458 6.32893 5.19129 6.56592 4.9543C6.80291 4.71732 6.93619 4.39599 6.93652 4.06084V1.88516C6.93652 1.54991 6.80334 1.22839 6.56629 0.991331C6.32923 0.754272 6.0077 0.621094 5.67245 0.621094C5.3372 0.621094 5.01568 0.754272 4.77862 0.991331C4.54156 1.22839 4.40838 1.54991 4.40838 1.88516V4.06084C4.40871 4.39599 4.54199 4.71732 4.77898 4.9543C5.01597 5.19129 5.3373 5.32458 5.67245 5.3249ZM5.67245 1.24303C5.84279 1.24319 6.0061 1.31093 6.12655 1.43138C6.247 1.55182 6.31474 1.71514 6.3149 1.88547V4.06115C6.3149 4.23154 6.24721 4.39494 6.12673 4.51543C6.00625 4.63591 5.84284 4.70359 5.67245 4.70359C5.50206 4.70359 5.33866 4.63591 5.21817 4.51543C5.09769 4.39494 5.03 4.23154 5.03 4.06115V1.88547C5.03017 1.71514 5.09791 1.55182 5.21835 1.43138C5.3388 1.31093 5.50211 1.24319 5.67245 1.24303Z" fill="white"/>
<path d="M17.3277 5.3249C17.6629 5.32458 17.9842 5.19129 18.2212 4.9543C18.4582 4.71732 18.5915 4.39599 18.5918 4.06084V1.88516C18.5918 1.54991 18.4586 1.22839 18.2216 0.991331C17.9845 0.754272 17.663 0.621094 17.3277 0.621094C16.9925 0.621094 16.671 0.754272 16.4339 0.991331C16.1968 1.22839 16.0637 1.54991 16.0637 1.88516V4.06084C16.064 4.39599 16.1973 4.71732 16.4343 4.9543C16.6713 5.19129 16.9926 5.32458 17.3277 5.3249ZM17.3277 1.24303C17.4981 1.24319 17.6614 1.31093 17.7818 1.43138C17.9023 1.55182 17.97 1.71514 17.9702 1.88547V4.06115C17.9702 4.23154 17.9025 4.39494 17.782 4.51543C17.6615 4.63591 17.4981 4.70359 17.3277 4.70359C17.1573 4.70359 16.9939 4.63591 16.8735 4.51543C16.753 4.39494 16.6853 4.23154 16.6853 4.06115V1.88547C16.6855 1.71514 16.7532 1.55182 16.8736 1.43138C16.9941 1.31093 17.1574 1.24319 17.3277 1.24303Z" fill="white"/>
<path d="M4.11193 10.4517H4.8386C4.92104 10.4517 5.00009 10.4189 5.05838 10.3607C5.11667 10.3024 5.14941 10.2233 5.14941 10.1409C5.14941 10.0585 5.11667 9.9794 5.05838 9.92111C5.00009 9.86282 4.92104 9.83008 4.8386 9.83008H4.11193C4.0295 9.83008 3.95044 9.86282 3.89215 9.92111C3.83386 9.9794 3.80112 10.0585 3.80112 10.1409C3.80112 10.2233 3.83386 10.3024 3.89215 10.3607C3.95044 10.4189 4.0295 10.4517 4.11193 10.4517Z" fill="white"/>
<path d="M7.62463 10.4517H8.3513C8.43373 10.4517 8.51279 10.4189 8.57108 10.3607C8.62936 10.3024 8.66211 10.2233 8.66211 10.1409C8.66211 10.0585 8.62936 9.9794 8.57108 9.92111C8.51279 9.86282 8.43373 9.83008 8.3513 9.83008H7.62463C7.54219 9.83008 7.46314 9.86282 7.40485 9.92111C7.34656 9.9794 7.31382 10.0585 7.31382 10.1409C7.31382 10.2233 7.34656 10.3024 7.40485 10.3607C7.46314 10.4189 7.54219 10.4517 7.62463 10.4517Z" fill="white"/>
<path d="M11.1364 10.4517H11.863C11.9455 10.4517 12.0245 10.4189 12.0828 10.3607C12.1411 10.3024 12.1738 10.2233 12.1738 10.1409C12.1738 10.0585 12.1411 9.9794 12.0828 9.92111C12.0245 9.86282 11.9455 9.83008 11.863 9.83008H11.1364C11.0539 9.83008 10.9749 9.86282 10.9166 9.92111C10.8583 9.9794 10.8255 10.0585 10.8255 10.1409C10.8255 10.2233 10.8583 10.3024 10.9166 10.3607C10.9749 10.4189 11.0539 10.4517 11.1364 10.4517Z" fill="white"/>
<path d="M4.11193 13.4302H4.8386C4.92104 13.4302 5.00009 13.3975 5.05838 13.3392C5.11667 13.2809 5.14941 13.2018 5.14941 13.1194C5.14941 13.037 5.11667 12.9579 5.05838 12.8996C5.00009 12.8413 4.92104 12.8086 4.8386 12.8086H4.11193C4.0295 12.8086 3.95044 12.8413 3.89215 12.8996C3.83386 12.9579 3.80112 13.037 3.80112 13.1194C3.80112 13.2018 3.83386 13.2809 3.89215 13.3392C3.95044 13.3975 4.0295 13.4302 4.11193 13.4302Z" fill="white"/>
<path d="M7.62463 13.4302H8.3513C8.43373 13.4302 8.51279 13.3975 8.57108 13.3392C8.62936 13.2809 8.66211 13.2018 8.66211 13.1194C8.66211 13.037 8.62936 12.9579 8.57108 12.8996C8.51279 12.8413 8.43373 12.8086 8.3513 12.8086H7.62463C7.54219 12.8086 7.46314 12.8413 7.40485 12.8996C7.34656 12.9579 7.31382 13.037 7.31382 13.1194C7.31382 13.2018 7.34656 13.2809 7.40485 13.3392C7.46314 13.3975 7.54219 13.4302 7.62463 13.4302Z" fill="white"/>
<path d="M11.1364 13.4302H11.863C11.9455 13.4302 12.0245 13.3975 12.0828 13.3392C12.1411 13.2809 12.1738 13.2018 12.1738 13.1194C12.1738 13.037 12.1411 12.9579 12.0828 12.8996C12.0245 12.8413 11.9455 12.8086 11.863 12.8086H11.1364C11.0539 12.8086 10.9749 12.8413 10.9166 12.8996C10.8583 12.9579 10.8255 13.037 10.8255 13.1194C10.8255 13.2018 10.8583 13.2809 10.9166 13.3392C10.9749 13.3975 11.0539 13.4302 11.1364 13.4302Z" fill="white"/>
<path d="M14.649 13.4302H15.3757C15.4581 13.4302 15.5372 13.3975 15.5955 13.3392C15.6538 13.2809 15.6865 13.2018 15.6865 13.1194C15.6865 13.037 15.6538 12.9579 15.5955 12.8996C15.5372 12.8413 15.4581 12.8086 15.3757 12.8086H14.649C14.5666 12.8086 14.4875 12.8413 14.4293 12.8996C14.371 12.9579 14.3382 13.037 14.3382 13.1194C14.3382 13.2018 14.371 13.2809 14.4293 13.3392C14.4875 13.3975 14.5666 13.4302 14.649 13.4302Z" fill="white"/>
<path d="M18.1617 13.4302H18.8884C18.9708 13.4302 19.0499 13.3975 19.1082 13.3392C19.1665 13.2809 19.1992 13.2018 19.1992 13.1194C19.1992 13.037 19.1665 12.9579 19.1082 12.8996C19.0499 12.8413 18.9708 12.8086 18.8884 12.8086H18.1617C18.0793 12.8086 18.0002 12.8413 17.942 12.8996C17.8837 12.9579 17.8509 13.037 17.8509 13.1194C17.8509 13.2018 17.8837 13.2809 17.942 13.3392C18.0002 13.3975 18.0793 13.4302 18.1617 13.4302Z" fill="white"/>
<path d="M4.11193 16.4087H4.8386C4.92104 16.4087 5.00009 16.376 5.05838 16.3177C5.11667 16.2594 5.14941 16.1804 5.14941 16.0979C5.14941 16.0155 5.11667 15.9364 5.05838 15.8781C5.00009 15.8199 4.92104 15.7871 4.8386 15.7871H4.11193C4.0295 15.7871 3.95044 15.8199 3.89215 15.8781C3.83386 15.9364 3.80112 16.0155 3.80112 16.0979C3.80112 16.1804 3.83386 16.2594 3.89215 16.3177C3.95044 16.376 4.0295 16.4087 4.11193 16.4087Z" fill="white"/>
<path d="M7.62463 16.4087H8.3513C8.43373 16.4087 8.51279 16.376 8.57108 16.3177C8.62936 16.2594 8.66211 16.1804 8.66211 16.0979C8.66211 16.0155 8.62936 15.9364 8.57108 15.8781C8.51279 15.8199 8.43373 15.7871 8.3513 15.7871H7.62463C7.54219 15.7871 7.46314 15.8199 7.40485 15.8781C7.34656 15.9364 7.31382 16.0155 7.31382 16.0979C7.31382 16.1804 7.34656 16.2594 7.40485 16.3177C7.46314 16.376 7.54219 16.4087 7.62463 16.4087Z" fill="white"/>
<path d="M11.1364 16.4087H11.863C11.9455 16.4087 12.0245 16.376 12.0828 16.3177C12.1411 16.2594 12.1738 16.1804 12.1738 16.0979C12.1738 16.0155 12.1411 15.9364 12.0828 15.8781C12.0245 15.8199 11.9455 15.7871 11.863 15.7871H11.1364C11.0539 15.7871 10.9749 15.8199 10.9166 15.8781C10.8583 15.9364 10.8255 16.0155 10.8255 16.0979C10.8255 16.1804 10.8583 16.2594 10.9166 16.3177C10.9749 16.376 11.0539 16.4087 11.1364 16.4087Z" fill="white"/>
<path d="M14.649 16.4087H15.3757C15.4581 16.4087 15.5372 16.376 15.5955 16.3177C15.6538 16.2594 15.6865 16.1804 15.6865 16.0979C15.6865 16.0155 15.6538 15.9364 15.5955 15.8781C15.5372 15.8199 15.4581 15.7871 15.3757 15.7871H14.649C14.5666 15.7871 14.4875 15.8199 14.4293 15.8781C14.371 15.9364 14.3382 16.0155 14.3382 16.0979C14.3382 16.1804 14.371 16.2594 14.4293 16.3177C14.4875 16.376 14.5666 16.4087 14.649 16.4087Z" fill="white"/>
<path d="M18.1617 16.4087H18.8884C18.9708 16.4087 19.0499 16.376 19.1082 16.3177C19.1665 16.2594 19.1992 16.1804 19.1992 16.0979C19.1992 16.0155 19.1665 15.9364 19.1082 15.8781C19.0499 15.8199 18.9708 15.7871 18.8884 15.7871H18.1617C18.0793 15.7871 18.0002 15.8199 17.942 15.8781C17.8837 15.9364 17.8509 16.0155 17.8509 16.0979C17.8509 16.1804 17.8837 16.2594 17.942 16.3177C18.0002 16.376 18.0793 16.4087 18.1617 16.4087Z" fill="white"/>
<path d="M11.1364 19.3873H11.863C11.9455 19.3873 12.0245 19.3545 12.0828 19.2962C12.1411 19.2379 12.1738 19.1589 12.1738 19.0764C12.1738 18.994 12.1411 18.9149 12.0828 18.8567C12.0245 18.7984 11.9455 18.7656 11.863 18.7656H11.1364C11.0539 18.7656 10.9749 18.7984 10.9166 18.8567C10.8583 18.9149 10.8255 18.994 10.8255 19.0764C10.8255 19.1589 10.8583 19.2379 10.9166 19.2962C10.9749 19.3545 11.0539 19.3873 11.1364 19.3873Z" fill="white"/>
<path d="M14.649 19.3873H15.3757C15.4581 19.3873 15.5372 19.3545 15.5955 19.2962C15.6538 19.2379 15.6865 19.1589 15.6865 19.0764C15.6865 18.994 15.6538 18.9149 15.5955 18.8567C15.5372 18.7984 15.4581 18.7656 15.3757 18.7656H14.649C14.5666 18.7656 14.4875 18.7984 14.4293 18.8567C14.371 18.9149 14.3382 18.994 14.3382 19.0764C14.3382 19.1589 14.371 19.2379 14.4293 19.2962C14.4875 19.3545 14.5666 19.3873 14.649 19.3873Z" fill="white"/>
<path d="M18.1617 19.3873H18.8884C18.9708 19.3873 19.0499 19.3545 19.1082 19.2962C19.1665 19.2379 19.1992 19.1589 19.1992 19.0764C19.1992 18.994 19.1665 18.9149 19.1082 18.8567C19.0499 18.7984 18.9708 18.7656 18.8884 18.7656H18.1617C18.0793 18.7656 18.0002 18.7984 17.942 18.8567C17.8837 18.9149 17.8509 18.994 17.8509 19.0764C17.8509 19.1589 17.8837 19.2379 17.942 19.2962C18.0002 19.3545 18.0793 19.3873 18.1617 19.3873Z" fill="white"/>
</svg>
