<svg width="33" height="33" viewBox="0 0 33 33" fill="none" xmlns="http://www.w3.org/2000/svg">
<g clip-path="url(#clip0)">
<path d="M9.77497 14.3163L9.77377 14.3373C9.69247 15.7614 10.4902 17.0954 11.8066 17.735L11.8201 17.7416C12.2842 17.9636 12.6645 18.3296 12.9045 18.7847L12.9099 18.7946C13.5732 20.0576 14.9451 20.8232 16.4076 20.7464L16.4298 20.7452C16.9602 20.7155 17.4867 20.8523 17.9355 21.1367C19.1739 21.9113 20.7459 21.9113 21.9843 21.1367C22.4331 20.8523 22.9596 20.7155 23.49 20.7452L23.5122 20.7464C24.9723 20.8238 26.346 20.0576 27.0108 18.7925L27.0141 18.7856C27.255 18.3293 27.6363 17.9627 28.1019 17.7404L28.1127 17.735C29.429 17.0951 30.227 15.7614 30.1454 14.337L30.1442 14.3172C30.1172 13.8156 30.2564 13.3191 30.5408 12.9048C31.3595 11.7108 31.3595 10.1364 30.5411 8.9421C30.257 8.5281 30.1172 8.03191 30.1442 7.53031L30.1454 7.50931C30.227 6.08492 29.429 4.75113 28.1115 4.11093L28.0995 4.10493C27.6363 3.88353 27.2568 3.51934 27.0165 3.06544L27.0096 3.05194C26.346 1.78895 24.9723 1.02365 23.5122 1.10015L23.4897 1.10135C22.9596 1.13105 22.4331 0.994251 21.9846 0.709853H21.984C20.7456 -0.0647425 19.1736 -0.0647425 17.9352 0.709853C17.4864 0.993951 16.9599 1.13075 16.4295 1.10105L16.4073 1.09985C14.9469 1.02245 13.5735 1.78865 12.9102 3.05134L12.9051 3.06064C12.6648 3.51663 12.2842 3.88293 11.8195 4.10523L11.8069 4.11123C10.4905 4.75083 9.69247 6.08492 9.77407 7.50931L9.77527 7.52911C9.80227 8.03071 9.66307 8.5272 9.37867 8.9412C8.55997 10.1355 8.55997 11.7102 9.37867 12.9042C9.66277 13.3182 9.80227 13.8147 9.77497 14.3163ZM10.39 9.639C10.8289 9 11.044 8.23381 11.002 7.45981L11.0008 7.43881C10.9576 6.49502 11.4874 5.61842 12.3427 5.21732L12.3532 5.21222C13.0548 4.87623 13.6293 4.32303 13.9917 3.63483L13.9977 3.62343C14.4384 2.78404 15.3615 2.27524 16.3419 2.32744L16.3635 2.32834C17.148 2.37244 17.9265 2.17024 18.5901 1.74965C19.428 1.22555 20.4912 1.22555 21.3291 1.74965C21.9927 2.16964 22.7712 2.37214 23.5554 2.32864L23.577 2.32744C24.5622 2.27584 25.4808 2.78404 25.9203 3.62103L25.9284 3.63633C26.2908 4.32363 26.8647 4.87593 27.5655 5.21162L27.5757 5.21672C28.4445 5.63912 28.9718 6.51122 28.9187 7.43911L28.9175 7.46101C28.8755 8.23501 29.0909 9.0009 29.5298 9.6399C30.0602 10.4136 30.0599 11.4336 29.5292 12.207C29.0906 12.8463 28.8755 13.6125 28.9175 14.3865L28.9187 14.4072C28.9718 15.3351 28.4445 16.2075 27.5754 16.6302L27.5664 16.6344C26.8641 16.971 26.289 17.5247 25.9263 18.2141L25.9218 18.2231C25.4808 19.0625 24.5592 19.5716 23.5773 19.5191L23.556 19.5179C22.7715 19.4741 21.9927 19.6766 21.3288 20.0969C20.4912 20.6207 19.428 20.6207 18.5904 20.0969C17.9868 19.7144 17.2866 19.5116 16.572 19.5122C16.5027 19.5122 16.4331 19.514 16.3635 19.5179L16.3419 19.5188C15.3744 19.5803 14.4591 19.0739 13.9968 18.2216L13.9905 18.2099C13.6287 17.5229 13.0551 16.971 12.3547 16.6353L12.3433 16.6296C11.4742 16.2072 10.9468 15.3348 11.0002 14.4072L11.0014 14.3853C11.0431 13.6113 10.8277 12.8451 10.3891 12.2064C9.85897 11.4327 9.85927 10.4127 10.39 9.6396V9.639Z" fill="#3A3A3A"/>
<path d="M15.9953 17.2752C16.283 17.4549 16.6619 17.367 16.8416 17.0793L24.1198 5.4196C24.2386 5.23331 24.2485 4.99751 24.1453 4.80221C24.0421 4.60661 23.8417 4.48181 23.6209 4.47491C23.4001 4.46801 23.1925 4.58021 23.0773 4.76891L15.7994 16.4286C15.6197 16.7166 15.7073 17.0955 15.9953 17.2752Z" fill="#3A3A3A"/>
<path d="M16.6468 10.9537C18.1429 10.9537 19.3603 9.5656 19.3603 7.85951C19.3603 6.15342 18.1429 4.76562 16.6468 4.76562C15.1507 4.76562 13.9336 6.15342 13.9336 7.85951C13.9336 9.5656 15.1507 10.9537 16.6468 10.9537ZM16.6468 5.99442C17.4655 5.99442 18.1315 6.83111 18.1315 7.85951C18.1315 8.8879 17.4655 9.72489 16.6468 9.72489C15.8284 9.72489 15.1624 8.8876 15.1624 7.85951C15.1624 6.83141 15.8284 5.99442 16.6468 5.99442Z" fill="#3A3A3A"/>
<path d="M20.5576 13.9884C20.5576 15.6945 21.7747 17.0823 23.2708 17.0823C24.7669 17.0823 25.9843 15.6942 25.9843 13.9884C25.9843 12.2829 24.7672 10.8945 23.2711 10.8945C21.7747 10.8945 20.5576 12.282 20.5576 13.9884ZM24.7555 13.9884C24.7555 15.0168 24.0895 15.8535 23.2708 15.8535C22.4524 15.8535 21.7864 15.0168 21.7864 13.9884C21.7864 12.96 22.4524 12.1233 23.2708 12.1233C24.0895 12.1233 24.7555 12.9594 24.7555 13.9884Z" fill="#3A3A3A"/>
<path d="M32.9202 24.1913C32.1066 22.7474 30.3025 22.1975 28.822 22.9421L24.0091 25.216C23.3446 23.9804 22.0699 23.1938 20.6671 23.1542L16.2241 23.0318C15.5206 23.0117 14.8303 22.8332 14.2049 22.5104L13.7528 22.2761C11.438 21.0695 8.67888 21.0725 6.3665 22.2839L6.3947 21.2597C6.404 20.9204 6.1367 20.6378 5.7974 20.6285L0.92543 20.4944C0.586132 20.4851 0.303834 20.7524 0.294534 21.0917L0.000235499 31.7833C-0.00906448 32.1226 0.258234 32.4052 0.597532 32.4145L5.4695 32.5486H5.4866C5.8193 32.5483 6.0914 32.2834 6.1007 31.951L6.1145 31.4395L7.38019 30.7618C7.87699 30.4945 8.45809 30.4309 9.00078 30.5845L16.5586 32.7058C16.5718 32.7097 16.585 32.7127 16.5985 32.7157C17.1448 32.83 17.7016 32.8873 18.2599 32.887C19.4419 32.8876 20.6101 32.6329 21.6844 32.1397C21.7108 32.1277 21.7363 32.1139 21.7606 32.0983L32.7189 25.0096C32.9922 24.8332 33.0804 24.4742 32.9202 24.1913ZM1.24553 31.2028L1.50593 21.74L5.14971 21.8402L4.88901 31.3033L1.24553 31.2028ZM21.1306 31.0417C19.7959 31.6441 18.3052 31.8103 16.8706 31.5169L9.33288 29.4016C8.48479 29.1616 7.57639 29.2612 6.8003 29.6785L6.1535 30.0247L6.3269 23.7329C8.37619 22.3697 11.0048 22.2296 13.1876 23.3669L13.6397 23.6012C14.4299 24.0092 15.3016 24.2345 16.1905 24.26L20.6335 24.3824C21.8815 24.4181 22.9414 25.3066 23.1946 26.5294L16.5766 26.3473C16.2373 26.338 15.955 26.6053 15.9457 26.9446C15.9364 27.2839 16.2037 27.5665 16.543 27.5758L23.8465 27.7768H23.8639C24.1963 27.7765 24.4684 27.5116 24.4777 27.1792C24.4852 26.9122 24.4651 26.6449 24.4183 26.3821L29.3539 24.0497L29.3683 24.0428C30.0685 23.6882 30.9154 23.8067 31.491 24.3398L21.1306 31.0417Z" fill="#3A3A3A"/>
</g>
<defs>
<clipPath id="clip0">
<rect width="33" height="33" fill="white"/>
</clipPath>
</defs>
</svg>
