<svg width="21" height="21" viewBox="0 0 21 21" fill="none" xmlns="http://www.w3.org/2000/svg">
<path d="M20.3438 19.6875H20.0156V13.4532C20.0156 13.389 19.9967 13.3262 19.9614 13.2726C19.926 13.219 19.8757 13.177 19.8167 13.1517L15.4219 11.2679V9.84379H18.0469C18.482 9.84379 18.8993 9.67094 19.207 9.36327C19.5146 9.05559 19.6875 8.63829 19.6875 8.20317C19.6875 7.76805 19.5146 7.35075 19.207 7.04307C18.8993 6.7354 18.482 6.56254 18.0469 6.56254C18.0153 6.56254 17.9837 6.56336 17.9521 6.56542C17.7955 6.03639 17.4535 5.5815 16.9888 5.28404C16.5242 4.98659 15.9679 4.86648 15.4219 4.94571V0.984419C15.4219 0.933606 15.4102 0.883475 15.3875 0.837985C15.3649 0.792496 15.332 0.752892 15.2914 0.722303C15.2508 0.691713 15.2037 0.670975 15.1537 0.661726C15.1038 0.652477 15.0524 0.65497 15.0035 0.669009L8.2909 2.5869C8.11159 2.22632 7.84064 1.91922 7.50521 1.69639C7.16978 1.47357 6.78166 1.34284 6.37977 1.31733C5.97788 1.29182 5.57635 1.37242 5.21544 1.55105C4.85452 1.72968 4.54691 2.00005 4.32346 2.33506C4.05391 2.28122 3.77608 2.28441 3.50785 2.34444C3.23961 2.40447 2.98692 2.51999 2.76604 2.68359C2.54515 2.84719 2.36098 3.05522 2.22536 3.2943C2.08974 3.53339 2.00569 3.79822 1.97861 4.07175C1.95154 4.34528 1.98204 4.62145 2.06816 4.88248C2.15428 5.14351 2.2941 5.38362 2.47863 5.58734C2.66315 5.79106 2.88829 5.95389 3.13955 6.06533C3.39082 6.17678 3.66263 6.23438 3.9375 6.23442H5.57812V19.6875H3.28125V17.0265C3.70084 16.935 4.08311 16.6684 4.38006 16.2525C4.72951 15.7636 4.92188 15.1188 4.92188 14.4375C4.92188 13.7563 4.72951 13.1115 4.38006 12.6226C4.00723 12.1001 3.50027 11.8125 2.95312 11.8125C2.40598 11.8125 1.89902 12.1001 1.52619 12.6226C1.17674 13.1115 0.984375 13.7563 0.984375 14.4375C0.984375 15.1188 1.17674 15.7636 1.52619 16.2525C1.82314 16.6684 2.20541 16.935 2.625 17.0265V17.8443L1.78746 17.4251C1.7489 17.4058 1.70691 17.3943 1.6639 17.3913C1.62089 17.3882 1.5777 17.3937 1.5368 17.4073C1.49589 17.4209 1.45807 17.4425 1.4255 17.4708C1.39293 17.499 1.36624 17.5334 1.34695 17.572C1.32767 17.6105 1.31617 17.6525 1.31312 17.6955C1.31006 17.7385 1.3155 17.7817 1.32914 17.8226C1.34277 17.8635 1.36433 17.9013 1.39258 17.9339C1.42083 17.9665 1.45522 17.9932 1.49379 18.0125L2.625 18.5777V19.6875H0.65625C0.569226 19.6875 0.485766 19.7221 0.424231 19.7837C0.362695 19.8452 0.328125 19.9286 0.328125 20.0157C0.328125 20.1027 0.362695 20.1862 0.424231 20.2477C0.485766 20.3092 0.569226 20.3438 0.65625 20.3438H20.3438C20.4308 20.3438 20.5142 20.3092 20.5758 20.2477C20.6373 20.1862 20.6719 20.1027 20.6719 20.0157C20.6719 19.9286 20.6373 19.8452 20.5758 19.7837C20.5142 19.7221 20.4308 19.6875 20.3438 19.6875ZM15.4219 5.61139C15.5298 5.58916 15.6398 5.57803 15.75 5.57817C16.1441 5.57964 16.5246 5.72229 16.8225 5.98025C17.1204 6.2382 17.316 6.59438 17.3738 6.98418C17.3804 7.03028 17.3967 7.07445 17.4216 7.11377C17.4465 7.15308 17.4796 7.18663 17.5185 7.2122C17.5574 7.23777 17.6013 7.25476 17.6473 7.26205C17.6933 7.26934 17.7403 7.26676 17.7852 7.25448C17.9206 7.21699 18.0625 7.20893 18.2013 7.23083C18.34 7.25273 18.4725 7.30408 18.5898 7.38144C18.7071 7.45881 18.8065 7.56038 18.8813 7.67934C18.956 7.7983 19.0045 7.93188 19.0233 8.07112C19.0422 8.21035 19.031 8.35201 18.9905 8.48657C18.9501 8.62112 18.8813 8.74546 18.7888 8.85122C18.6963 8.95698 18.5822 9.04172 18.4543 9.09973C18.3263 9.15774 18.1874 9.18768 18.0469 9.18754H15.4219V5.61139ZM2.95312 15.0938C2.8661 15.0938 2.78264 15.1284 2.72111 15.1899C2.65957 15.2514 2.625 15.3349 2.625 15.4219V16.3411C2.06637 16.1159 1.64062 15.3354 1.64062 14.4375C1.64062 13.3703 2.2415 12.4688 2.95312 12.4688C3.66475 12.4688 4.26562 13.3703 4.26562 14.4375C4.26562 15.3354 3.83988 16.1159 3.28125 16.3411V15.4219C3.28125 15.3349 3.24668 15.2514 3.18514 15.1899C3.12361 15.1284 3.04015 15.0938 2.95312 15.0938ZM5.81602 3.29401C5.74749 3.31361 5.6872 3.35499 5.64428 3.4119C5.60136 3.46881 5.57814 3.53814 5.57812 3.60942V5.57817H3.9375C3.74651 5.57818 3.55782 5.5365 3.3846 5.45605C3.21138 5.3756 3.0578 5.25832 2.93459 5.11238C2.81138 4.96645 2.7215 4.79538 2.67123 4.61113C2.62096 4.42687 2.61151 4.23386 2.64354 4.04558C2.67557 3.85729 2.7483 3.67826 2.85666 3.52099C2.96503 3.36372 3.10641 3.23199 3.27094 3.135C3.43547 3.03801 3.61918 2.9781 3.80926 2.95944C3.99934 2.94079 4.1912 2.96384 4.37145 3.027C4.44639 3.05321 4.52829 3.05137 4.60198 3.0218C4.67566 2.99224 4.73613 2.93696 4.77217 2.86622C4.90517 2.60439 5.10602 2.38307 5.35376 2.22537C5.60149 2.06767 5.88702 1.97937 6.18053 1.96969C6.47404 1.96001 6.76477 2.0293 7.02235 2.17034C7.27994 2.31137 7.49494 2.51898 7.6449 2.77147L5.81602 3.29401ZM12.7969 19.6875H8.20312V19.3594H12.7969V19.6875ZM8.85938 18.7032V15.4219H10.1719V18.7032H8.85938ZM10.8281 18.7032V15.4219H12.1406V18.7032H10.8281ZM14.7656 19.6875H13.4531V19.0313C13.4531 18.9443 13.4186 18.8608 13.357 18.7993C13.2955 18.7377 13.212 18.7032 13.125 18.7032H12.7969V15.0938C12.7969 15.0068 12.7623 14.9233 12.7008 14.8618C12.6392 14.8002 12.5558 14.7657 12.4688 14.7657H8.53125C8.44423 14.7657 8.36077 14.8002 8.29923 14.8618C8.23769 14.9233 8.20312 15.0068 8.20312 15.0938V18.7032H7.875C7.78798 18.7032 7.70452 18.7377 7.64298 18.7993C7.58144 18.8608 7.54688 18.9443 7.54688 19.0313V19.6875H6.23438V3.85674L14.7656 1.41959V19.6875ZM19.3594 16.4063H16.7344V15.0938H19.3594V16.4063ZM19.3594 14.4375H16.4062C16.3192 14.4375 16.2358 14.4721 16.1742 14.5337C16.1127 14.5952 16.0781 14.6786 16.0781 14.7657V16.7344C16.0781 16.8214 16.1127 16.9049 16.1742 16.9664C16.2358 17.028 16.3192 17.0625 16.4062 17.0625H19.3594V19.6875H15.4219V11.9819L19.3594 13.6697V14.4375Z" fill="black"/>
</svg>
