<svg width="30" height="30" viewBox="0 0 30 30" fill="none" xmlns="http://www.w3.org/2000/svg">
<g clip-path="url(#clip0)">
<path d="M27.3468 11.9814C27.1496 5.34124 21.6871 0 14.9999 0C8.31283 0 2.8503 5.34124 2.65306 11.9814L1.76465 12.8698V18.8949L2.647 19.7772V23.8824C2.647 26.2826 4.59971 28.2353 6.99994 28.2353H8.09288C8.45712 29.2623 9.43788 30 10.5882 30H12.3529C13.5039 30 14.4852 29.2612 14.8489 28.2332C14.8993 28.2341 14.9498 28.2353 14.9999 28.2353C19.261 28.2353 22.8263 25.1991 23.6461 21.1765H25.9537L28.2352 18.8949V12.8698L27.3468 11.9814ZM14.9999 1.76471C20.2371 1.76471 24.5976 5.587 25.4403 10.5882H23.6461C22.8263 6.56565 19.261 3.52941 14.9999 3.52941C10.7389 3.52941 7.17359 6.56565 6.35383 10.5882H4.55959C5.40224 5.587 9.76283 1.76471 14.9999 1.76471ZM21.8354 10.5882C18.9831 10.5797 16.9684 10.7534 15.3074 8.32529L14.5008 7.14629L13.8076 8.39535C12.7976 10.2153 11.4374 10.5882 9.70583 10.5882H8.16447C8.95006 7.54718 11.7168 5.29412 14.9999 5.29412C18.2831 5.29412 21.0498 7.54718 21.8354 10.5882ZM6.17641 19.4118H4.77718L3.52935 18.1639V13.6008L4.77718 12.3529H6.17641V19.4118ZM4.41171 23.8824V21.1765H6.35212C6.6843 22.8221 7.47906 24.3326 8.65647 25.5458C8.40965 25.8095 8.21606 26.1234 8.09288 26.4706H6.99994C5.57277 26.4706 4.41171 25.3095 4.41171 23.8824ZM12.3529 28.2353H10.5882C10.1016 28.2353 9.70583 27.8395 9.70583 27.3529C9.70583 26.8664 10.1016 26.4706 10.5882 26.4706H12.3529C12.8394 26.4706 13.2352 26.8664 13.2352 27.3529C13.2352 27.8395 12.8394 28.2353 12.3529 28.2353ZM22.0588 19.4118C22.0588 23.304 18.8922 26.4706 14.9999 26.4706C14.9494 26.4706 14.8984 26.4696 14.8474 26.4684C14.4826 25.4425 13.5024 24.7059 12.3529 24.7059C10.5411 24.7099 10.57 24.6968 10.3442 24.7176C8.8123 23.3749 7.94112 21.4624 7.94112 19.4118V12.3529H9.70583C11.2674 12.3529 13.1692 12.0955 14.6413 10.3038C16.5836 12.3393 18.9573 12.3529 21.0881 12.3529H22.0588V19.4118ZM26.4705 18.1639L25.2227 19.4118H23.8235V12.3529H25.2227L26.4705 13.6008V18.1639Z" fill="#3A3A3A"/>
</g>
<defs>
<clipPath id="clip0">
<rect width="30" height="30" fill="white"/>
</clipPath>
</defs>
</svg>
