<svg width="14" height="16" viewBox="0 0 14 16" fill="none" xmlns="http://www.w3.org/2000/svg">
<path d="M4 4.625V3.375C4 3.125 4.125 3 4.375 3H5.625C5.875 3 6 3.125 6 3.375V4.625C6 4.875 5.875 5 5.625 5H4.375C4.125 5 4 4.875 4 4.625ZM8.375 5C8.125 5 8 4.875 8 4.625V3.375C8 3.125 8.125 3 8.375 3H9.625C9.875 3 10 3.125 10 3.375V4.625C10 4.875 9.875 5 9.625 5H8.375ZM4.375 8C4.125 8 4 7.875 4 7.625V6.375C4 6.125 4.125 6 4.375 6H5.625C5.875 6 6 6.125 6 6.375V7.625C6 7.875 5.875 8 5.625 8H4.375ZM8.375 8C8.125 8 8 7.875 8 7.625V6.375C8 6.125 8.125 6 8.375 6H9.625C9.875 6 10 6.125 10 6.375V7.625C10 7.875 9.875 8 9.625 8H8.375ZM6 10.625C6 10.875 5.875 11 5.625 11H4.375C4.125 11 4 10.875 4 10.625V9.375C4 9.125 4.125 9 4.375 9H5.625C5.875 9 6 9.125 6 9.375V10.625ZM8.375 11C8.125 11 8 10.875 8 10.625V9.375C8 9.125 8.125 9 8.375 9H9.625C9.875 9 10 9.125 10 9.375V10.625C10 10.875 9.875 11 9.625 11H8.375ZM14 14.875V16H0V14.875C0 14.625 0.125 14.5 0.375 14.5H1V0.75C1 0.541667 1.07292 0.364583 1.21875 0.21875C1.36458 0.0729167 1.54167 0 1.75 0H12.25C12.4583 0 12.6354 0.0729167 12.7812 0.21875C12.9271 0.364583 13 0.541667 13 0.75V14.5H13.625C13.875 14.5 14 14.625 14 14.875ZM2.5 14.4688H6V12.375C6 12.125 6.125 12 6.375 12H7.625C7.875 12 8 12.125 8 12.375V14.4688H11.5V1.53125L2.5 1.5V14.4688Z" fill="#BEBEBE"/>
</svg>
