<svg width="16" height="12" viewBox="0 0 16 12" fill="none" xmlns="http://www.w3.org/2000/svg">
<path d="M14.5 0C14.9167 0 15.2708 0.145833 15.5625 0.4375C15.8542 0.729167 16 1.08333 16 1.5V10.5C16 10.9167 15.8542 11.2708 15.5625 11.5625C15.2708 11.8542 14.9167 12 14.5 12H1.5C1.08333 12 0.729167 11.8542 0.4375 11.5625C0.145833 11.2708 0 10.9167 0 10.5V1.5C0 1.08333 0.145833 0.729167 0.4375 0.4375C0.729167 0.145833 1.08333 0 1.5 0H14.5ZM1.5 1C1.35417 1 1.22917 1.05208 1.125 1.15625C1.04167 1.23958 1 1.35417 1 1.5V2.78125C1.72917 3.40625 3.30208 4.67708 5.71875 6.59375C5.71875 6.59375 5.86458 6.71875 6.15625 6.96875C6.44792 7.19792 6.66667 7.36458 6.8125 7.46875C6.95833 7.57292 7.14583 7.6875 7.375 7.8125C7.625 7.9375 7.83333 8 8 8C8.14583 8 8.30208 7.96875 8.46875 7.90625C8.63542 7.84375 8.80208 7.75 8.96875 7.625C9.15625 7.5 9.3125 7.38542 9.4375 7.28125C9.58333 7.17708 9.75 7.05208 9.9375 6.90625C10.125 6.73958 10.2396 6.63542 10.2812 6.59375C12.6979 4.67708 14.2708 3.40625 15 2.78125V1.5C15 1.35417 14.9479 1.23958 14.8438 1.15625C14.7604 1.05208 14.6458 1 14.5 1H1.5ZM14.5 11C14.6458 11 14.7604 10.9583 14.8438 10.875C14.9479 10.7708 15 10.6458 15 10.5V4.09375C14.2708 4.67708 12.9062 5.77083 10.9062 7.375C10.8646 7.39583 10.7188 7.51042 10.4688 7.71875C10.2396 7.92708 10.0521 8.08333 9.90625 8.1875C9.76042 8.29167 9.57292 8.41667 9.34375 8.5625C9.11458 8.70833 8.88542 8.82292 8.65625 8.90625C8.42708 8.96875 8.20833 9 8 9C7.8125 9 7.61458 8.96875 7.40625 8.90625C7.21875 8.84375 7.04167 8.77083 6.875 8.6875C6.72917 8.60417 6.55208 8.5 6.34375 8.375C6.15625 8.22917 6 8.11458 5.875 8.03125C5.75 7.92708 5.60417 7.80208 5.4375 7.65625C5.27083 7.51042 5.15625 7.41667 5.09375 7.375C3.09375 5.77083 1.72917 4.67708 1 4.09375V10.5C1 10.6458 1.04167 10.7708 1.125 10.875C1.22917 10.9583 1.35417 11 1.5 11H14.5Z" fill="white"/>
</svg>
