<svg width="42" height="42" viewBox="0 0 42 42" fill="none" xmlns="http://www.w3.org/2000/svg">
<path d="M41.8915 24.0705L39.7655 20.8177C38.8268 19.3804 37.2318 18.5221 35.498 18.5221H29.9999V15.3582C29.9999 13.4264 28.429 11.8555 26.4973 11.8555H16.2048C15.6273 8.83922 12.9723 6.55078 9.79004 6.55078C6.18668 6.55078 3.25546 9.48238 3.25546 13.0854C3.25546 15.3509 4.41551 17.3494 6.1718 18.5221H0.666809C0.298309 18.5221 0 18.8204 0 19.1889C0 19.5574 0.298309 19.8557 0.666809 19.8557H7.33337V21.1889H4.66652C4.2984 21.1889 4.00009 21.4872 4.00009 21.8557C4.00009 22.2242 4.2984 22.5222 4.66652 22.5222H7.33337V23.8554H0.666809C0.298309 23.8554 0 24.1537 0 24.5222C0 24.8907 0.298309 25.189 0.666809 25.189H7.33337V28.1416C6.15807 28.66 5.33333 29.8326 5.33333 31.1975V31.8556C5.33333 32.2241 5.63202 32.5224 6.00014 32.5224H11.9129C12.2921 34.1536 13.7547 35.3743 15.4999 35.3743C17.2455 35.3743 18.7077 34.1536 19.0868 32.5224H31.913C32.2926 34.1536 33.7551 35.3743 35.5 35.3743C37.2448 35.3743 38.7077 34.1536 39.0869 32.5224H41.3334C41.7019 32.5224 41.9998 32.2241 41.9998 31.8556V24.4352C41.9998 24.3055 41.9621 24.1785 41.8915 24.0705ZM4.5887 13.0854C4.5887 10.2175 6.92215 7.88402 9.79004 7.88402C12.6583 7.88402 14.9914 10.2175 14.9914 13.0854C14.9914 15.9532 12.6583 18.2867 9.79004 18.2867C6.92215 18.2867 4.5887 15.9532 4.5887 13.0854ZM8.66661 25.189H9.99985C10.3683 25.189 10.6667 24.8907 10.6667 24.5222C10.6667 24.1537 10.3683 23.8554 9.99985 23.8554H8.66661V22.5222H13.3335C13.7016 22.5222 13.9999 22.2242 13.9999 21.8557C13.9999 21.4872 13.7016 21.1889 13.3335 21.1889H8.66661V19.8557H17.3332C17.7013 19.8557 18 19.5574 18 19.1889C18 18.8204 17.7013 18.5221 17.3332 18.5221H13.4083C15.1375 17.3674 16.2846 15.4112 16.3197 13.1887H26.4977C27.6936 13.1887 28.6667 14.1622 28.6667 15.3582V27.8555H8.675C8.67233 27.8555 8.66966 27.8562 8.66661 27.8562V25.189ZM28.6667 31.1888H19.1475C19.0426 30.422 18.7023 29.7308 18.1999 29.1887H28.6667V31.1888ZM8.675 29.1887H12.7998C12.2978 29.7308 11.9572 30.422 11.8526 31.1888H6.66656C6.67114 30.0856 7.57065 29.1887 8.675 29.1887ZM15.4999 34.041C14.2033 34.041 13.1477 32.9859 13.1477 31.6889C13.1477 30.3923 14.2033 29.3367 15.4999 29.3367C16.7969 29.3367 17.852 30.3923 17.852 31.6889C17.852 32.9859 16.7969 34.041 15.4999 34.041ZM35.5 34.041C34.2033 34.041 33.1478 32.9859 33.1478 31.6889C33.1478 30.3923 34.2033 29.3367 35.5 29.3367C36.797 29.3367 37.8521 30.3923 37.8521 31.6889C37.8521 32.9859 36.797 34.041 35.5 34.041ZM40.6666 31.1888H39.1476C38.9023 29.3932 37.3619 28.0035 35.5 28.0035C33.638 28.0035 32.098 29.3932 31.8523 31.1888H29.9999V19.8557H35.498C36.7794 19.8557 37.9578 20.4878 38.6497 21.5467L40.6666 24.6336V31.1888Z" fill="#3A3A3A"/>
<path d="M36.5904 31.6883C36.5904 32.2906 36.1021 32.7789 35.4998 32.7789C34.8975 32.7789 34.4092 32.2906 34.4092 31.6883C34.4092 31.0859 34.8975 30.5977 35.4998 30.5977C36.1021 30.5977 36.5904 31.0859 36.5904 31.6883Z" fill="#3A3A3A"/>
<path d="M16.59 31.6883C16.59 32.2906 16.1018 32.7789 15.4994 32.7789C14.8975 32.7789 14.4092 32.2906 14.4092 31.6883C14.4092 31.0859 14.8975 30.5977 15.4994 30.5977C16.1018 30.5977 16.59 31.0859 16.59 31.6883Z" fill="#3A3A3A"/>
<path d="M10.6668 13.0851V10.1684C10.6668 9.79988 10.3685 9.50195 10 9.50195C9.63191 9.50195 9.3336 9.79988 9.3336 10.1684V12.8677L7.9729 14.7342C7.75584 15.0317 7.82107 15.4483 8.11862 15.665C8.23764 15.752 8.37496 15.7935 8.51115 15.7935C8.71676 15.7935 8.9197 15.6986 9.05017 15.5193L10.539 13.4776C10.6218 13.364 10.6668 13.2266 10.6668 13.0851Z" fill="#3A3A3A"/>
<path d="M35.2751 20.5215H33.9998C33.6313 20.5215 33.333 20.8198 33.333 21.1883V25.8548C33.333 26.2233 33.6313 26.5216 33.9998 26.5216H38.4867C38.9048 26.5216 39.279 26.3053 39.4888 25.9441C39.6986 25.5828 39.699 25.1502 39.4922 24.7898L37.9354 22.0649C37.3918 21.1135 36.3722 20.5215 35.2751 20.5215ZM34.6666 25.1884V21.8551H35.2751C35.895 21.8551 36.4706 22.1889 36.7777 22.7268L38.1842 25.1884H34.6666Z" fill="#3A3A3A"/>
</svg>
