<svg width="9" height="15" viewBox="0 0 9 15" fill="none" xmlns="http://www.w3.org/2000/svg">
<path d="M7.62891 8.625H5.57812V14.75H2.84375V8.625H0.628906V6.08203H2.84375V4.16797C2.84375 3.4388 2.98047 2.81901 3.25391 2.30859C3.52734 1.79818 3.91016 1.41536 4.40234 1.16016C4.91276 0.886719 5.49609 0.75 6.15234 0.75C6.44401 0.75 6.75391 0.768229 7.08203 0.804688C7.41016 0.822917 7.66536 0.85026 7.84766 0.886719L8.12109 0.914062V3.07422H7.02734C6.51693 3.07422 6.14323 3.21094 5.90625 3.48438C5.6875 3.73958 5.57812 4.05859 5.57812 4.44141V6.08203H8.01172L7.62891 8.625Z" fill="#3C5A99"/>
</svg>
