<svg width="20" height="13" viewBox="0 0 20 13" fill="none" xmlns="http://www.w3.org/2000/svg">
<path d="M16.2188 2H20V10H18C17.7292 10 17.4896 9.90625 17.2812 9.71875C17.0938 9.51042 17 9.27083 17 9H15.1875C15.125 9.27083 15.0104 9.51042 14.8438 9.71875L14.0312 10.7188C13.7812 11.0312 13.4688 11.2396 13.0938 11.3438C12.7396 11.4271 12.3854 11.3958 12.0312 11.25C11.6354 11.75 11.125 12 10.5 12C10.0417 12 9.61458 11.8333 9.21875 11.5C8.73958 11.8542 8.1875 12.0208 7.5625 12C6.95833 11.9792 6.41667 11.7708 5.9375 11.375L3.28125 9H3C3 9.1875 2.94792 9.35417 2.84375 9.5C2.76042 9.64583 2.64583 9.77083 2.5 9.875C2.35417 9.95833 2.1875 10 2 10H0V2H3.6875L5.1875 0.5C5.52083 0.166667 5.92708 0 6.40625 0H13.5C13.9792 0 14.3958 0.166667 14.75 0.5L16.2188 2ZM1.125 8.84375C1.22917 8.94792 1.35417 9 1.5 9C1.64583 9 1.76042 8.94792 1.84375 8.84375C1.94792 8.73958 2 8.625 2 8.5C2 8.35417 1.94792 8.23958 1.84375 8.15625C1.76042 8.05208 1.64583 8 1.5 8C1.35417 8 1.22917 8.05208 1.125 8.15625C1.04167 8.23958 1 8.35417 1 8.5C1 8.625 1.04167 8.73958 1.125 8.84375ZM13.6875 8.78125C13.7917 8.63542 13.7812 8.51042 13.6562 8.40625L10.2812 5.6875L10 5.90625C9.625 6.26042 9.19792 6.45833 8.71875 6.5C8.26042 6.52083 7.875 6.45833 7.5625 6.3125C7.27083 6.14583 7.03125 5.96875 6.84375 5.78125C6.42708 5.32292 6.22917 4.79167 6.25 4.1875C6.27083 3.5625 6.51042 3.03125 6.96875 2.59375L8.1875 1.5H6.40625C6.38542 1.5 6.35417 1.51042 6.3125 1.53125C6.29167 1.55208 6.27083 1.5625 6.25 1.5625L4.3125 3.5H3V7.5H3.875L6.90625 10.25C7.15625 10.4583 7.44792 10.5417 7.78125 10.5C8.13542 10.4583 8.41667 10.3021 8.625 10.0312L9.125 9.4375L10.2812 10.4375C10.4688 10.5833 10.6562 10.5521 10.8438 10.3438L11.7812 9.21875L12.5312 9.8125C12.6562 9.91667 12.7708 9.90625 12.875 9.78125L13.6875 8.78125ZM17 7.5V3.5H15.5938L13.6875 1.5625C13.625 1.52083 13.5625 1.5 13.5 1.5H10.875C10.5625 1.5 10.2812 1.61458 10.0312 1.84375L8 3.71875C7.83333 3.84375 7.75 4.01042 7.75 4.21875C7.75 4.42708 7.82292 4.61458 7.96875 4.78125C8.09375 4.92708 8.26042 5 8.46875 5C8.69792 4.97917 8.88542 4.90625 9.03125 4.78125L10.75 3.1875C11 2.95833 11.2396 2.96875 11.4688 3.21875L11.8125 3.59375C12.0417 3.84375 12.0312 4.07292 11.7812 4.28125L11.375 4.65625L14.5938 7.25C14.6771 7.33333 14.7604 7.41667 14.8438 7.5H17ZM18.125 8.84375C18.2292 8.94792 18.3542 9 18.5 9C18.6458 9 18.7604 8.94792 18.8438 8.84375C18.9479 8.73958 19 8.625 19 8.5C19 8.35417 18.9479 8.23958 18.8438 8.15625C18.7604 8.05208 18.6458 8 18.5 8C18.3542 8 18.2292 8.05208 18.125 8.15625C18.0417 8.23958 18 8.35417 18 8.5C18 8.625 18.0417 8.73958 18.125 8.84375Z" fill="#BEBEBE"/>
</svg>
