<svg width="18" height="14" viewBox="0 0 18 14" fill="none" xmlns="http://www.w3.org/2000/svg">
<path d="M17.8125 6.71875C17.9375 6.82292 18 6.95833 18 7.125C18 7.25 17.9583 7.35417 17.875 7.4375L17.5625 7.8125C17.4583 7.9375 17.3333 8 17.1875 8C17.0625 8 16.9583 7.95833 16.875 7.875L16 7.1875V13C16 13.2708 15.8958 13.5 15.6875 13.6875C15.5 13.8958 15.2708 14 15 14H11C10.7292 14 10.4896 13.8958 10.2812 13.6875C10.0938 13.5 10 13.2708 10 13V9.75H8V13C8 13.2708 7.89583 13.5 7.6875 13.6875C7.5 13.8958 7.27083 14 7 14H3C2.72917 14 2.48958 13.8958 2.28125 13.6875C2.09375 13.5 2 13.2708 2 13V7.1875L1.15625 7.875C1.05208 7.95833 0.9375 8 0.8125 8C0.666667 8 0.541667 7.9375 0.4375 7.8125L0.125 7.4375C0.0416667 7.33333 0 7.22917 0 7.125C0 6.95833 0.0625 6.82292 0.1875 6.71875L7.875 0.40625C8.20833 0.135417 8.58333 0 9 0C9.41667 0 9.79167 0.135417 10.125 0.40625L14.5 4V2.25C14.5 2.08333 14.5833 2 14.75 2H15.75C15.9167 2 16 2.08333 16 2.25V5.25L17.8125 6.71875ZM14.5 12.5V5.9375L9 1.4375L3.5 5.9375V12.5H6.5V9.25C6.5 8.97917 6.59375 8.75 6.78125 8.5625C6.98958 8.35417 7.22917 8.25 7.5 8.25H10.5C10.7708 8.25 11 8.35417 11.1875 8.5625C11.3958 8.75 11.5 8.97917 11.5 9.25V12.5H14.5Z" fill="#FCB408"/>
</svg>
