<svg width="13" height="13" viewBox="0 0 13 13" fill="none" xmlns="http://www.w3.org/2000/svg">
<path d="M3.91016 4.53516C4.52995 3.91536 5.27734 3.60547 6.15234 3.60547C7.02734 3.60547 7.76562 3.91536 8.36719 4.53516C8.98698 5.13672 9.29688 5.875 9.29688 6.75C9.29688 7.625 8.98698 8.3724 8.36719 8.99219C7.76562 9.59375 7.02734 9.89453 6.15234 9.89453C5.27734 9.89453 4.52995 9.59375 3.91016 8.99219C3.30859 8.3724 3.00781 7.625 3.00781 6.75C3.00781 5.875 3.30859 5.13672 3.91016 4.53516ZM4.70312 8.19922C5.10417 8.60026 5.58724 8.80078 6.15234 8.80078C6.71745 8.80078 7.20052 8.60026 7.60156 8.19922C8.0026 7.79818 8.20312 7.3151 8.20312 6.75C8.20312 6.1849 8.0026 5.70182 7.60156 5.30078C7.20052 4.89974 6.71745 4.69922 6.15234 4.69922C5.58724 4.69922 5.10417 4.89974 4.70312 5.30078C4.30208 5.70182 4.10156 6.1849 4.10156 6.75C4.10156 7.3151 4.30208 7.79818 4.70312 8.19922ZM9.92578 2.97656C10.0716 3.10417 10.1445 3.26823 10.1445 3.46875C10.1445 3.66927 10.0716 3.84245 9.92578 3.98828C9.79818 4.13411 9.63411 4.20703 9.43359 4.20703C9.23307 4.20703 9.0599 4.13411 8.91406 3.98828C8.76823 3.84245 8.69531 3.66927 8.69531 3.46875C8.69531 3.26823 8.76823 3.10417 8.91406 2.97656C9.0599 2.83073 9.23307 2.75781 9.43359 2.75781C9.63411 2.75781 9.79818 2.83073 9.92578 2.97656ZM12.25 4.23438C12.2682 4.72656 12.2773 5.5651 12.2773 6.75C12.2773 7.9349 12.2682 8.77344 12.25 9.26562C12.1953 10.3776 11.8581 11.2435 11.2383 11.8633C10.6367 12.4648 9.77995 12.7839 8.66797 12.8203C8.17578 12.8568 7.33724 12.875 6.15234 12.875C4.96745 12.875 4.12891 12.8568 3.63672 12.8203C2.52474 12.7656 1.66797 12.4375 1.06641 11.8359C0.829427 11.6172 0.638021 11.362 0.492188 11.0703C0.346354 10.7786 0.236979 10.4961 0.164062 10.2227C0.109375 9.94922 0.0820312 9.63021 0.0820312 9.26562C0.0455729 8.77344 0.0273438 7.9349 0.0273438 6.75C0.0273438 5.5651 0.0455729 4.71745 0.0820312 4.20703C0.136719 3.11328 0.464844 2.26562 1.06641 1.66406C1.66797 1.04427 2.52474 0.707031 3.63672 0.652344C4.12891 0.634115 4.96745 0.625 6.15234 0.625C7.33724 0.625 8.17578 0.634115 8.66797 0.652344C9.77995 0.707031 10.6367 1.04427 11.2383 1.66406C11.8581 2.26562 12.1953 3.1224 12.25 4.23438ZM10.9375 10.3594C10.9922 10.2135 11.0378 10.0312 11.0742 9.8125C11.1107 9.57552 11.138 9.30208 11.1562 8.99219C11.1745 8.66406 11.1836 8.39974 11.1836 8.19922C11.1836 7.9987 11.1836 7.71615 11.1836 7.35156C11.1836 6.98698 11.1836 6.78646 11.1836 6.75C11.1836 6.69531 11.1836 6.49479 11.1836 6.14844C11.1836 5.78385 11.1836 5.5013 11.1836 5.30078C11.1836 5.10026 11.1745 4.84505 11.1562 4.53516C11.138 4.20703 11.1107 3.93359 11.0742 3.71484C11.0378 3.47786 10.9922 3.28646 10.9375 3.14062C10.7188 2.57552 10.3268 2.18359 9.76172 1.96484C9.61589 1.91016 9.42448 1.86458 9.1875 1.82812C8.96875 1.79167 8.69531 1.76432 8.36719 1.74609C8.05729 1.72786 7.80208 1.71875 7.60156 1.71875C7.41927 1.71875 7.13672 1.71875 6.75391 1.71875C6.38932 1.71875 6.1888 1.71875 6.15234 1.71875C6.11589 1.71875 5.91536 1.71875 5.55078 1.71875C5.1862 1.71875 4.90365 1.71875 4.70312 1.71875C4.5026 1.71875 4.23828 1.72786 3.91016 1.74609C3.60026 1.76432 3.32682 1.79167 3.08984 1.82812C2.87109 1.86458 2.6888 1.91016 2.54297 1.96484C1.97786 2.18359 1.58594 2.57552 1.36719 3.14062C1.3125 3.28646 1.26693 3.47786 1.23047 3.71484C1.19401 3.93359 1.16667 4.20703 1.14844 4.53516C1.13021 4.84505 1.12109 5.10026 1.12109 5.30078C1.12109 5.48307 1.12109 5.76562 1.12109 6.14844C1.12109 6.51302 1.12109 6.71354 1.12109 6.75C1.12109 6.82292 1.12109 6.99609 1.12109 7.26953C1.12109 7.52474 1.12109 7.74349 1.12109 7.92578C1.12109 8.08984 1.12109 8.30859 1.12109 8.58203C1.13932 8.85547 1.15755 9.09245 1.17578 9.29297C1.19401 9.47526 1.22135 9.66667 1.25781 9.86719C1.29427 10.0677 1.33073 10.2318 1.36719 10.3594C1.60417 10.9245 1.99609 11.3164 2.54297 11.5352C2.6888 11.5898 2.87109 11.6354 3.08984 11.6719C3.32682 11.7083 3.60026 11.7357 3.91016 11.7539C4.23828 11.7721 4.49349 11.7812 4.67578 11.7812C4.8763 11.7812 5.15885 11.7812 5.52344 11.7812C5.90625 11.7812 6.11589 11.7812 6.15234 11.7812C6.20703 11.7812 6.40755 11.7812 6.75391 11.7812C7.11849 11.7812 7.40104 11.7812 7.60156 11.7812C7.80208 11.7812 8.05729 11.7721 8.36719 11.7539C8.69531 11.7357 8.96875 11.7083 9.1875 11.6719C9.42448 11.6354 9.61589 11.5898 9.76172 11.5352C10.3268 11.2982 10.7188 10.9062 10.9375 10.3594Z" fill="#BEBEBE"/>
</svg>
