<svg width="16" height="12" viewBox="0 0 16 12" fill="none" xmlns="http://www.w3.org/2000/svg">
<path d="M5.75 0.625L10.875 5.75C11.0625 5.91667 11.0625 6.08333 10.875 6.25L5.75 11.375C5.58333 11.5625 5.40625 11.5625 5.21875 11.375L5 11.1562C4.8125 10.9896 4.8125 10.8125 5 10.625L9.125 6.53125H0.375C0.125 6.53125 0 6.40625 0 6.15625V5.84375C0 5.59375 0.125 5.46875 0.375 5.46875H9.125L5 1.375C4.8125 1.1875 4.8125 1.01042 5 0.84375L5.21875 0.625C5.38542 0.4375 5.5625 0.4375 5.75 0.625ZM16 10.5C16 10.9167 15.8542 11.2708 15.5625 11.5625C15.2708 11.8542 14.9167 12 14.5 12H10.375C10.125 12 10 11.875 10 11.625V11.375C10 11.125 10.125 11 10.375 11H14.5C14.6458 11 14.7604 10.9583 14.8438 10.875C14.9479 10.7708 15 10.6458 15 10.5V1.5C15 1.35417 14.9479 1.23958 14.8438 1.15625C14.7604 1.05208 14.6458 1 14.5 1H10.375C10.125 1 10 0.875 10 0.625V0.375C10 0.125 10.125 0 10.375 0H14.5C14.9167 0 15.2708 0.145833 15.5625 0.4375C15.8542 0.729167 16 1.08333 16 1.5V10.5Z" fill="white"/>
</svg>
