<svg width="23" height="23" viewBox="0 0 23 23" fill="none" xmlns="http://www.w3.org/2000/svg">
<path d="M11.5001 0C7.19602 0 3.69434 3.50164 3.69434 7.80573C3.69434 9.53534 4.71262 12.1657 6.89897 16.0837C8.39089 18.7571 9.87593 21.0151 9.93858 21.1102L11.0119 22.7372C11.1202 22.9013 11.3035 23 11.5001 23C11.6967 23 11.8801 22.9013 11.9883 22.7372L13.0616 21.1103C13.1237 21.0163 14.5979 18.7777 16.1013 16.0837C18.2876 12.1659 19.3059 9.53552 19.3059 7.80573C19.3059 3.50164 15.8042 0 11.5001 0ZM15.0799 15.5137C13.5974 18.1701 12.1465 20.3735 12.0853 20.4661L11.5001 21.3531L10.9151 20.4663C10.8536 20.373 9.39154 18.1498 7.92034 15.5137C5.89233 11.8794 4.86403 9.28605 4.86403 7.80573C4.86403 4.14661 7.84094 1.16969 11.5001 1.16969C15.1593 1.16969 18.1362 4.14661 18.1362 7.80573C18.1362 9.28624 17.1079 11.8795 15.0799 15.5137Z" fill="white"/>
<path d="M11.4997 3.42969C9.11333 3.42969 7.17188 5.37119 7.17188 7.75754C7.17188 10.1439 9.11333 12.0854 11.4997 12.0854C13.8861 12.0854 15.8276 10.1439 15.8276 7.75754C15.8276 5.37119 13.8861 3.42969 11.4997 3.42969ZM11.4997 10.9157C9.7583 10.9157 8.34157 9.49898 8.34157 7.75754C8.34157 6.01611 9.7583 4.59938 11.4997 4.59938C13.2412 4.59938 14.6579 6.01611 14.6579 7.75754C14.6579 9.49898 13.2412 10.9157 11.4997 10.9157Z" fill="white"/>
</svg>
