<svg width="29" height="29" viewBox="0 0 29 29" fill="none" xmlns="http://www.w3.org/2000/svg">
<g clip-path="url(#clip0)">
<path d="M16.5724 11.0828C16.9437 11.0828 17.2459 10.7806 17.2459 10.4091V8.6306C17.2459 8.25917 16.9437 7.95703 16.5724 7.95703H12.4275C12.0561 7.95703 11.7539 8.25917 11.7539 8.6306V10.4091C11.7539 10.7806 12.0561 11.0828 12.4275 11.0828H16.5724ZM12.6024 8.80557H16.3973V10.2342H12.6024V8.80557Z" fill="white"/>
<path d="M18.5788 20.2617C18.2075 20.2617 17.9053 20.5639 17.9053 20.9353V22.7139C17.9053 23.0853 18.2075 23.3875 18.5788 23.3875H22.7237C23.0951 23.3875 23.3973 23.0853 23.3973 22.7139V20.9353C23.3973 20.5639 23.0951 20.2617 22.7237 20.2617H18.5788ZM22.5488 22.5389H18.7538V21.1103H22.5488V22.5389Z" fill="white"/>
<path d="M10.4209 20.2617H6.27611C5.90468 20.2617 5.60254 20.5639 5.60254 20.9353V22.7139C5.60254 23.0853 5.90468 23.3875 6.27611 23.3875H10.4209C10.7923 23.3875 11.0945 23.0853 11.0945 22.7139V20.9353C11.0945 20.5639 10.7923 20.2617 10.4209 20.2617ZM10.246 22.5389H6.45108V21.1103H10.246V22.5389Z" fill="white"/>
<path d="M28.3622 24.6069H27.2285V22.9622C27.2285 22.7279 27.0386 22.5379 26.8042 22.5379C26.5699 22.5379 26.38 22.7279 26.38 22.9622V24.6067H14.9253V13.152H18.7596V15.9948C18.7596 16.2347 18.8818 16.4525 19.0864 16.5776C19.291 16.7027 19.5407 16.712 19.7541 16.6026L20.6527 16.142L21.5512 16.6026C21.6501 16.6533 21.7567 16.6785 21.8631 16.6785C21.9863 16.6785 22.1091 16.6447 22.2189 16.5776C22.4235 16.4525 22.5457 16.2346 22.5457 15.9948V13.152H26.3689C26.375 13.152 26.38 13.1569 26.38 13.1631V21.0348C26.38 21.2691 26.5699 21.459 26.8042 21.459C27.0386 21.459 27.2285 21.2691 27.2285 21.0348V13.1631C27.2285 12.6891 26.8429 12.3034 26.3689 12.3034H21.077V0.859287C21.077 0.385463 20.6915 0 20.2177 0H8.78485C8.31086 0 7.92517 0.385633 7.92517 0.859683V2.9868C7.92517 3.22111 8.11513 3.41107 8.34944 3.41107C8.58375 3.41107 8.77371 3.22111 8.77371 2.9868V0.859683C8.77371 0.853573 8.77869 0.848539 8.78485 0.848539H12.608V3.69143C12.608 3.93128 12.7302 4.14913 12.9348 4.2742C13.0447 4.34135 13.1674 4.37512 13.2906 4.37512C13.3969 4.37512 13.5037 4.34989 13.6026 4.29921L14.5011 3.83862L15.3995 4.29915C15.613 4.40856 15.8626 4.39933 16.0672 4.2742C16.272 4.14913 16.3941 3.93122 16.3941 3.69137V0.848539H20.2177C20.2236 0.848539 20.2284 0.853347 20.2284 0.859287V12.3032H8.77371V4.91417C8.77371 4.67986 8.58375 4.4899 8.34944 4.4899C8.11513 4.4899 7.92517 4.67986 7.92517 4.91417V12.3035H2.63323C2.15924 12.3035 1.77355 12.6891 1.77355 13.1632V24.6069H0.639902C0.290813 24.6069 0.00683594 24.8909 0.00683594 25.24V26.4718C0.00683594 26.8208 0.290813 27.1048 0.639902 27.1048H1.63778V28.2453C1.63778 28.6614 1.97635 29 2.39247 29H3.62676C4.04288 29 4.3815 28.6614 4.3815 28.2453V27.1048H24.6207V28.2453C24.6207 28.6614 24.9592 29 25.3754 29H26.6096C27.0258 29 27.3644 28.6614 27.3644 28.2453V27.1048H28.3623C28.7113 27.1048 28.9953 26.8208 28.9953 26.4718V25.24C28.9952 24.8909 28.7113 24.6069 28.3622 24.6069ZM15.5456 3.42052L14.8126 3.04478C14.6175 2.94483 14.3846 2.94483 14.1895 3.04478L13.4565 3.42052V0.848539H15.5456V3.42052ZM19.6081 13.152H21.6972V15.724L20.9643 15.3483C20.7692 15.2482 20.5362 15.2482 20.3411 15.3483L19.6081 15.724V13.152ZM7.30489 13.152H9.39393V15.724L8.66091 15.3483C8.46586 15.2482 8.23291 15.2482 8.0378 15.3483L7.30483 15.724V13.152H7.30489ZM2.62209 13.1631C2.62209 13.157 2.62707 13.152 2.63323 13.152H6.45635V15.9948C6.45635 16.2346 6.57854 16.4525 6.78315 16.5776C6.98782 16.7026 7.23746 16.712 7.45095 16.6026L8.34944 16.142L9.24793 16.6026C9.34687 16.6533 9.4535 16.6784 9.55985 16.6784C9.68306 16.6784 9.80581 16.6447 9.91567 16.5775C10.1203 16.4524 10.2425 16.2345 10.2425 15.9947V13.1519H14.0768V24.6065H2.62209V13.1631ZM3.53297 28.1515H2.48632V27.1048H3.53297V28.1515ZM26.5158 28.1515H25.4692V27.1048H26.5158V28.1515ZM28.1467 26.2563H0.855374V25.4554H28.1467V26.2563Z" fill="white"/>
</g>
<defs>
<clipPath id="clip0">
<rect width="29" height="29" fill="white"/>
</clipPath>
</defs>
</svg>
