<svg width="21" height="21" viewBox="0 0 21 21" fill="none" xmlns="http://www.w3.org/2000/svg">
<path d="M17.9246 3.07537C15.9415 1.0922 13.3046 0 10.5 0C7.69524 0 5.05854 1.0922 3.07537 3.07537C1.0922 5.05854 0 7.69524 0 10.5C0 13.3046 1.0922 15.9415 3.07537 17.9246C5.05854 19.9078 7.69524 21 10.5 21C13.3046 21 15.9415 19.9078 17.9246 17.9246C19.9078 15.9415 21 13.3046 21 10.5C21 7.69524 19.9078 5.05854 17.9246 3.07537ZM5.26394 18.1448C5.70309 15.6162 7.89423 13.7511 10.5 13.7511C13.1059 13.7511 15.2969 15.6162 15.7361 18.1448C14.2452 19.169 12.4415 19.7695 10.5 19.7695C8.55849 19.7695 6.75476 19.169 5.26394 18.1448ZM7.16139 9.18205C7.16139 7.341 8.6591 5.84344 10.5 5.84344C12.3409 5.84344 13.8386 7.34116 13.8386 9.18205C13.8386 11.0229 12.3409 12.5207 10.5 12.5207C8.6591 12.5207 7.16139 11.0229 7.16139 9.18205ZM16.8018 17.2913C16.4707 16.1142 15.813 15.0462 14.8911 14.2119C14.3255 13.7 13.6818 13.2961 12.9896 13.0114C14.2406 12.1954 15.0692 10.7837 15.0692 9.18205C15.0692 6.66264 13.0194 4.61298 10.5 4.61298C7.98058 4.61298 5.93092 6.66264 5.93092 9.18205C5.93092 10.7837 6.75957 12.1954 8.01038 13.0114C7.31841 13.2961 6.67449 13.6999 6.10892 14.2118C5.18719 15.046 4.52934 16.114 4.19817 17.2911C2.3741 15.5972 1.23047 13.1798 1.23047 10.5C1.23047 5.38875 5.38875 1.23047 10.5 1.23047C15.6113 1.23047 19.7695 5.38875 19.7695 10.5C19.7695 13.18 18.6259 15.5973 16.8018 17.2913Z" fill="black"/>
</svg>
