<svg width="36" height="36" viewBox="0 0 36 36" fill="none" xmlns="http://www.w3.org/2000/svg">
<g clip-path="url(#clip0)">
<path d="M18.1534 33.8046H1.34297C1.18399 33.8046 1.05469 33.6753 1.05469 33.5163V17.9102C1.05469 17.6189 0.818648 17.3828 0.527344 17.3828C0.236039 17.3828 0 17.6189 0 17.9102V33.5164C0 34.2568 0.602438 34.8593 1.34297 34.8593H18.1534C18.4447 34.8593 18.6808 34.6233 18.6808 34.332C18.6808 34.0407 18.4447 33.8046 18.1534 33.8046Z" fill="#3A3A3A"/>
<path d="M5.00793 30.1034C5.29923 30.1034 5.53527 29.8674 5.53527 29.5761V26.6954L6.14256 27.2951C6.34963 27.4998 6.68347 27.4978 6.88822 27.2905C7.0929 27.0833 7.0908 26.7494 6.88358 26.5448L5.37847 25.0584C5.17316 24.8555 4.84283 24.8556 4.63738 25.0584L3.13234 26.5448C2.9252 26.7494 2.92302 27.0834 3.12777 27.2906C3.23092 27.395 3.36683 27.4473 3.50296 27.4473C3.63676 27.4473 3.77078 27.3966 3.87358 27.2951L4.48072 26.6955V29.5761C4.48058 29.8673 4.71662 30.1034 5.00793 30.1034Z" fill="#3A3A3A"/>
<path d="M9.83019 30.1034C10.1215 30.1034 10.3575 29.8673 10.3575 29.576V26.6955L10.9647 27.2951C11.1713 27.4991 11.5052 27.4984 11.7104 27.2905C11.9151 27.0833 11.913 26.7494 11.7058 26.5448L10.2008 25.0584C9.99536 24.8555 9.6651 24.8555 9.45965 25.0584L7.95461 26.5448C7.74747 26.7494 7.74529 27.0833 7.95004 27.2905C8.15457 27.4976 8.48842 27.4998 8.69577 27.2951L9.30292 26.6955V29.576C9.30285 29.8673 9.53889 30.1034 9.83019 30.1034Z" fill="#3A3A3A"/>
<path d="M15.3193 30.9147L15.7219 31.3282C16.4813 32.1085 17.7297 32.1263 18.5108 31.3658L20.6717 29.2624C21.1051 28.8406 21.2508 28.199 21.0428 27.6277C21.0428 27.6276 21.0427 27.6276 21.0427 27.6276C20.9646 27.4129 20.8357 27.2172 20.6597 27.046L18.5108 24.9542C17.7203 24.185 16.4739 24.2193 15.7218 24.9919L15.3193 25.4054C15.1162 25.6141 15.1208 25.948 15.3295 26.151L17.3934 28.16L15.3295 30.169C15.1208 30.3721 15.1162 30.7059 15.3193 30.9147ZM18.5172 28.5379C18.7296 28.3311 18.73 27.9891 18.5172 27.7821L16.4429 25.763L16.4775 25.7275C16.8306 25.3649 17.4124 25.3571 17.775 25.7099L19.924 27.8016C20.1481 28.0199 20.1196 28.3279 19.9361 28.5065L17.775 30.61C17.4124 30.9629 16.8304 30.9549 16.4776 30.5925L16.4429 30.5569L18.5172 28.5379Z" fill="#3A3A3A"/>
<path d="M28.7883 7.056L25.7928 10.0515L24.3148 8.57348C23.6842 7.94292 22.6582 7.94292 22.0278 8.57348C21.3958 9.20538 21.3956 10.2285 22.0277 10.8605L24.6493 13.4821C25.2814 14.1141 26.3042 14.1141 26.9363 13.4821L31.0752 9.34312C31.7072 8.71122 31.7074 7.68811 31.0753 7.05607C30.4432 6.42403 29.4204 6.42403 28.7883 7.056ZM30.3296 7.80187C30.5493 8.0216 30.5495 8.37745 30.3295 8.59725L26.1906 12.7362C25.9709 12.9561 25.615 12.9561 25.3952 12.7362L22.7736 10.1147C22.5539 9.89493 22.5537 9.53908 22.7737 9.31929C22.9931 9.09991 23.3497 9.09998 23.5691 9.31929L25.42 11.1702C25.626 11.3761 25.9598 11.3761 26.1658 11.1702L29.5341 7.80187C29.7534 7.58257 30.1102 7.58257 30.3296 7.80187Z" fill="#3A3A3A"/>
<path d="M34.101 4.87809C33.9254 4.64584 33.5946 4.59979 33.3623 4.7755C33.13 4.95114 33.0841 5.28189 33.2597 5.5142C34.3625 6.97248 34.9453 8.71202 34.9453 10.5449C34.9453 15.1488 31.1997 18.8943 26.5958 18.8943C21.992 18.8943 18.2464 15.1487 18.2464 10.5449C18.2464 5.941 21.9919 2.19538 26.5958 2.19538C28.5191 2.19538 30.3963 2.86525 31.8817 4.08173C32.1071 4.26623 32.4394 4.23325 32.6239 4.00783C32.8084 3.78248 32.7753 3.45018 32.55 3.26568C30.8765 1.89536 28.762 1.14062 26.5958 1.14062C21.4104 1.14062 17.1917 5.3593 17.1917 10.5448C17.1917 11.0794 17.2372 11.6034 17.3233 12.1138H1.34297C0.602508 12.1138 0 12.7162 0 13.4568V15.8019C0 16.0932 0.236039 16.3292 0.527344 16.3292C0.818648 16.3292 1.05469 16.0932 1.05469 15.8019V13.4568C1.05469 13.2978 1.18399 13.1685 1.34297 13.1685H9.67029V15.9708C9.67029 16.5251 10.1212 16.9761 10.6755 16.9761H13.5274C14.0817 16.9761 14.5327 16.5251 14.5327 15.9708V13.1685H17.5647C18.3793 15.9678 20.4626 18.2325 23.1482 19.2944V33.5165C23.1482 33.6755 23.0189 33.8048 22.8599 33.8048H20.2619C19.9706 33.8048 19.7345 34.0408 19.7345 34.3321C19.7345 34.6234 19.9706 34.8595 20.2619 34.8595H22.8599C23.6004 34.8595 24.2029 34.257 24.2029 33.5165V19.6401C24.9673 19.8414 25.7692 19.949 26.5959 19.949C31.7813 19.949 36 15.7303 36 10.5449C36 8.48048 35.3434 6.52101 34.101 4.87809ZM13.4779 15.9215H10.725V13.1686H13.4779V15.9215Z" fill="#3A3A3A"/>
</g>
<defs>
<clipPath id="clip0">
<rect width="36" height="36" fill="white"/>
</clipPath>
</defs>
</svg>
