<svg width="36" height="36" viewBox="0 0 36 36" fill="none" xmlns="http://www.w3.org/2000/svg">
<path d="M29.5745 10.9317C29.3862 10.6442 29.2945 10.3042 29.3125 9.96101L29.3949 8.46504C29.421 7.9904 29.3082 7.51844 29.0704 7.10683C28.8326 6.69522 28.4801 6.36178 28.0559 6.14726L26.7319 5.4774C26.4264 5.32355 26.1785 5.07534 26.0251 4.76956L25.3563 3.44382C25.1424 3.01956 24.8095 2.66686 24.3982 2.42884C23.987 2.19083 23.5153 2.07783 23.0409 2.10366L21.5474 2.186C21.205 2.20385 20.8657 2.11175 20.5793 1.92317L19.3441 1.10754C18.9453 0.843767 18.4776 0.703125 17.9994 0.703125C17.5212 0.703125 17.0535 0.843767 16.6547 1.10754L15.4194 1.92317C15.1332 2.11181 14.7941 2.20384 14.4519 2.18579L12.9578 2.10352C12.4833 2.07739 12.0116 2.19024 11.6003 2.42825C11.1891 2.66625 10.8562 3.01908 10.6425 3.44347L9.97365 4.76935C9.82031 5.07511 9.57255 5.32334 9.26708 5.47725L7.94295 6.14712C7.519 6.36191 7.16675 6.69546 6.9292 7.10709C6.69164 7.51871 6.57906 7.99058 6.60519 8.46511L6.68752 9.96094C6.70561 10.3041 6.61384 10.6442 6.42554 10.9317L5.61083 12.1689C5.34742 12.5686 5.20703 13.0367 5.20703 13.5154C5.20703 13.994 5.34742 14.4622 5.61083 14.8619L6.42519 16.0989C6.61342 16.3862 6.70518 16.7261 6.68717 17.0692L6.60483 18.5653C6.57877 19.0399 6.69141 19.5117 6.92901 19.9234C7.16662 20.335 7.5189 20.6685 7.94288 20.8833L9.2668 21.5529C9.57237 21.7067 9.82023 21.9549 9.97365 22.2607L10.6424 23.5867C10.6699 23.6413 10.6992 23.6945 10.7304 23.7463L6.47806 30.5153C6.43657 30.5814 6.4142 30.6576 6.41343 30.7356C6.41267 30.8136 6.43354 30.8903 6.47373 30.9571C6.51392 31.024 6.57185 31.0784 6.6411 31.1143C6.71034 31.1502 6.78818 31.1662 6.86597 31.1605L11.3679 30.8319L13.0261 35.0302C13.0547 35.1027 13.1029 35.1659 13.1653 35.2127C13.2277 35.2595 13.3018 35.2881 13.3795 35.2953C13.3926 35.2964 13.4056 35.2971 13.4185 35.2971C13.4899 35.297 13.5601 35.2789 13.6226 35.2444C13.685 35.2098 13.7377 35.16 13.7757 35.0996L17.9999 28.3759L22.2241 35.0998C22.2621 35.1603 22.3148 35.2101 22.3772 35.2447C22.4397 35.2792 22.5099 35.2973 22.5812 35.2974C22.5942 35.2974 22.6072 35.2967 22.6203 35.2956C22.6979 35.2884 22.7721 35.2598 22.8345 35.213C22.8969 35.1662 22.9451 35.103 22.9737 35.0304L24.6318 30.8319L29.1338 31.1605C29.2116 31.1662 29.2894 31.1502 29.3587 31.1143C29.4279 31.0784 29.4859 31.024 29.5261 30.9571C29.5662 30.8903 29.5871 30.8136 29.5864 30.7356C29.5856 30.6576 29.5632 30.5814 29.5217 30.5153L25.2694 23.7465C25.3005 23.6946 25.3299 23.6415 25.3573 23.5869L26.0261 22.2609C26.1795 21.9551 26.4272 21.7069 26.7327 21.5531L28.0572 20.8833C28.4811 20.6685 28.8333 20.3349 29.0709 19.9233C29.3084 19.5117 29.421 19.0398 29.3949 18.5653L29.3125 17.0693C29.2945 16.7262 29.3863 16.3863 29.5745 16.0989L30.389 14.8615C30.6524 14.4618 30.7928 13.9937 30.7928 13.515C30.7928 13.0364 30.6524 12.5682 30.389 12.1685L29.5745 10.9317ZM13.5047 33.9452L12.0388 30.2337C12.0058 30.1501 11.9469 30.0792 11.8708 30.0314C11.7947 29.9836 11.7054 29.9613 11.6157 29.9679L7.63604 30.2583L11.3123 24.4065C11.7792 24.7744 12.3644 24.9594 12.958 24.9268L14.4514 24.8443C14.7938 24.8266 15.133 24.9187 15.4195 25.1072L16.3201 25.7018L17.5017 27.5828L13.5047 33.9452ZM28.364 30.2583L24.3843 29.9677C24.2946 29.9611 24.2053 29.9834 24.1292 30.0312C24.0531 30.079 23.9942 30.1499 23.9612 30.2334L22.4951 33.9452L17.6969 26.3076C18.2748 26.3829 18.8604 26.2462 19.3452 25.9229L20.5806 25.1072C20.8669 24.9189 21.2058 24.8269 21.548 24.8446L23.042 24.927C23.6356 24.9597 24.2207 24.7747 24.6877 24.4067L28.364 30.2583ZM29.6843 14.3977L28.8699 15.6347C28.5826 16.0733 28.4426 16.592 28.4702 17.1156L28.5525 18.6117C28.5697 18.9226 28.496 19.2318 28.3403 19.5015C28.1847 19.7711 27.954 19.9897 27.6762 20.1305L26.3522 20.8002C25.8856 21.035 25.5072 21.414 25.2729 21.8809L24.6041 23.2072C24.4643 23.4851 24.2464 23.7161 23.9772 23.872C23.708 24.0278 23.3991 24.1016 23.0885 24.0843L21.5942 24.0019C21.0712 23.9746 20.5531 24.1152 20.1156 24.4032L18.8803 25.2188C18.6192 25.3917 18.3131 25.4838 18 25.4838C17.6869 25.4838 17.3808 25.3917 17.1197 25.2188L15.8847 24.4032C15.4838 24.1395 15.0145 23.9988 14.5347 23.9983C14.4916 23.9983 14.4483 23.9995 14.4052 24.0019L12.9115 24.0843C12.6009 24.1015 12.292 24.0276 12.0227 23.8717C11.7535 23.7159 11.5355 23.4848 11.3957 23.2069L10.7269 21.8808C10.4927 21.4139 10.1142 21.0349 9.64761 20.8L8.3239 20.1309C8.04614 19.9902 7.81535 19.7717 7.65971 19.502C7.50406 19.2323 7.43029 18.9231 7.44739 18.6122L7.52973 17.1161C7.55728 16.5925 7.41727 16.0738 7.13 15.6352L6.31564 14.3978C6.14311 14.1358 6.05116 13.8291 6.05116 13.5154C6.05116 13.2017 6.14311 12.8949 6.31564 12.633L7.13 11.3958C7.41737 10.9571 7.55739 10.4382 7.52973 9.91454L7.44739 8.41857C7.43025 8.10767 7.50399 7.79852 7.6596 7.52882C7.81521 7.25913 8.04596 7.04057 8.32369 6.89982L9.64782 6.23016C10.1143 5.99528 10.4928 5.61632 10.727 5.14946L11.3959 3.82336C11.5357 3.54547 11.7536 3.31443 12.0228 3.1586C12.292 3.00277 12.6009 2.92894 12.9115 2.94615L14.4057 3.02834C14.9287 3.05539 15.4467 2.91484 15.8843 2.62714L17.1195 1.81151C17.3805 1.6389 17.6865 1.54686 17.9994 1.54686C18.3123 1.54686 18.6182 1.6389 18.8792 1.81151L20.1143 2.62714C20.5519 2.91528 21.0702 3.05593 21.5935 3.02855L23.0872 2.94629C23.3978 2.92922 23.7067 3.00313 23.9759 3.15897C24.2451 3.31481 24.463 3.5458 24.6029 3.82365L25.2718 5.14953C25.506 5.61638 25.8844 5.99532 26.351 6.23016L27.6749 6.90017C27.9528 7.04076 28.1838 7.25926 28.3396 7.52896C28.4954 7.79867 28.5693 8.10792 28.5522 8.41892L28.4701 9.91454C28.4425 10.4381 28.5825 10.9568 28.8698 11.3954L29.6841 12.6325C29.8568 12.8945 29.9488 13.2013 29.9488 13.5151C29.9488 13.8289 29.8568 14.1357 29.6841 14.3977H29.6843Z" fill="#3A3A3A"/>
<path d="M18 4.53711C13.057 4.53711 9.03516 8.5644 9.03516 13.5145C9.03516 18.4645 13.057 22.4918 18 22.4918C22.943 22.4918 26.9648 18.4643 26.9648 13.5143C26.9648 8.56433 22.943 4.53711 18 4.53711ZM18 21.6481C13.522 21.6481 9.87891 17.9994 9.87891 13.5145C9.87891 9.02959 13.522 5.38086 18 5.38086C22.478 5.38086 26.1211 9.02959 26.1211 13.5143C26.1211 17.9991 22.478 21.6481 18 21.6481Z" fill="#3A3A3A"/>
<path d="M22.5786 11.7373L19.6761 11.3149L18.3781 8.68072C18.3433 8.61007 18.2894 8.55057 18.2225 8.50897C18.1556 8.46736 18.0784 8.44531 17.9996 8.44531C17.9209 8.44531 17.8437 8.46736 17.7768 8.50897C17.7099 8.55057 17.656 8.61007 17.6212 8.68072L16.323 11.3149L13.4207 11.7373C13.3428 11.7487 13.2697 11.7816 13.2095 11.8323C13.1494 11.883 13.1046 11.9495 13.0802 12.0244C13.0559 12.0992 13.053 12.1793 13.0718 12.2557C13.0906 12.3321 13.1305 12.4017 13.1868 12.4567L15.2873 14.5072L14.7914 17.4028C14.7781 17.4804 14.7868 17.5602 14.8164 17.6331C14.8461 17.7061 14.8956 17.7692 14.9593 17.8155C15.0231 17.8617 15.0984 17.8892 15.177 17.8949C15.2555 17.9005 15.334 17.884 15.4037 17.8474L17.9996 16.4806L20.5954 17.8473C20.665 17.884 20.7436 17.9004 20.8221 17.8948C20.9006 17.8891 20.976 17.8617 21.0397 17.8154C21.1034 17.7692 21.1529 17.706 21.1826 17.6331C21.2123 17.5602 21.221 17.4804 21.2077 17.4028L20.712 14.5072L22.8125 12.4567C22.8688 12.4017 22.9087 12.3321 22.9275 12.2557C22.9463 12.1793 22.9434 12.0992 22.9191 12.0244C22.8947 11.9495 22.8499 11.883 22.7898 11.8323C22.7296 11.7816 22.6565 11.7487 22.5786 11.7373ZM19.964 14.0582C19.9151 14.1059 19.8786 14.1648 19.8575 14.2298C19.8364 14.2948 19.8314 14.3639 19.843 14.4313L20.2318 16.7024L18.1965 15.6304C18.1359 15.5985 18.0685 15.5818 18 15.5818C17.9315 15.5818 17.8641 15.5985 17.8035 15.6304L15.7677 16.7023L16.1567 14.4312C16.1682 14.3638 16.1633 14.2947 16.1422 14.2297C16.1211 14.1647 16.0845 14.1058 16.0356 14.058L14.3874 12.4492L16.6644 12.1178C16.7321 12.108 16.7964 12.0818 16.8518 12.0415C16.9071 12.0013 16.9518 11.9482 16.9821 11.8868L17.9996 9.82161L19.0174 11.887C19.0476 11.9483 19.0923 12.0014 19.1477 12.0417C19.203 12.0819 19.2673 12.1081 19.335 12.1179L21.6122 12.4493L19.964 14.0582Z" fill="#3A3A3A"/>
<path d="M16.6475 7.3888C16.6758 7.38879 16.7041 7.38597 16.7318 7.38036C16.8379 7.35877 16.9466 7.33972 17.0549 7.32355C17.1656 7.30701 17.2652 7.2472 17.3317 7.15725C17.3983 7.06731 17.4264 6.95461 17.4099 6.84394C17.3933 6.73328 17.3335 6.63371 17.2436 6.56715C17.1536 6.50058 17.0409 6.47248 16.9303 6.48901C16.8076 6.50736 16.6842 6.52901 16.5642 6.55334C16.4616 6.574 16.3703 6.63205 16.3082 6.71622C16.246 6.8004 16.2173 6.90468 16.2277 7.00882C16.2381 7.11296 16.2868 7.20952 16.3644 7.27974C16.442 7.34996 16.5429 7.38883 16.6476 7.3888H16.6475Z" fill="#3A3A3A"/>
<path d="M15.5147 7.75816C15.6169 7.71385 15.6974 7.6309 15.7387 7.52743C15.78 7.42396 15.7786 7.30836 15.735 7.20586C15.6914 7.10335 15.609 7.02227 15.5058 6.9803C15.4026 6.93833 15.287 6.93888 15.1842 6.98184C13.884 7.53352 12.7752 8.45599 11.9961 9.63407C11.2171 10.8121 10.8024 12.1936 10.8037 13.606C10.8037 13.7179 10.8482 13.8252 10.9273 13.9043C11.0064 13.9834 11.1137 14.0279 11.2256 14.0279C11.3375 14.0279 11.4448 13.9834 11.5239 13.9043C11.603 13.8252 11.6475 13.7179 11.6475 13.606C11.6463 12.3591 12.0124 11.1396 12.7002 10.0995C13.3879 9.05953 14.3668 8.24517 15.5147 7.75816Z" fill="#3A3A3A"/>
</svg>
