<svg width="16" height="14" viewBox="0 0 16 14" fill="none" xmlns="http://www.w3.org/2000/svg">
<path d="M14.5 0C14.9167 0 15.2708 0.145833 15.5625 0.4375C15.8542 0.729167 16 1.08333 16 1.5V12.5C16 12.9167 15.8542 13.2708 15.5625 13.5625C15.2708 13.8542 14.9167 14 14.5 14H1.5C1.08333 14 0.729167 13.8542 0.4375 13.5625C0.145833 13.2708 0 12.9167 0 12.5V1.5C0 1.08333 0.145833 0.729167 0.4375 0.4375C0.729167 0.145833 1.08333 0 1.5 0H14.5ZM6.15625 1.25V4.25H9.84375V1.25H6.15625ZM6.15625 5.5V8.5H9.84375V5.5H6.15625ZM4.90625 12.75V9.75H1.25V12.375C1.25 12.625 1.375 12.75 1.625 12.75H4.90625ZM4.90625 8.5V5.5H1.25V8.5H4.90625ZM4.90625 4.25V1.25H1.625C1.375 1.25 1.25 1.375 1.25 1.625V4.25H4.90625ZM9.84375 12.75V9.75H6.15625V12.75H9.84375ZM14.75 12.75V9.75H11.0938V12.75H14.75ZM14.75 8.5V5.5H11.0938V8.5H14.75ZM14.75 4.25V1.25H11.0938V4.25H14.75Z" fill="#BEBEBE"/>
</svg>
