<svg width="30" height="30" viewBox="0 0 30 30" fill="none" xmlns="http://www.w3.org/2000/svg">
<g clip-path="url(#clip0)">
<path d="M27.674 15.5514V1.89031C27.674 1.40293 27.2788 1.00781 26.7915 1.00781H3.14755C2.66018 1.00781 2.26506 1.40293 2.26506 1.89031V16.6405C1.83934 16.7025 1.42316 16.8678 1.05498 17.1411C-0.105674 17.9641 -0.380189 19.806 0.592026 20.9418L4.56696 25.7607C7.02747 28.6404 9.64125 28.9932 13.5269 28.9932C16.8614 28.9932 18.3522 29.0079 21.2582 28.3457L24.088 27.6689C24.5468 28.3097 25.2752 28.7247 26.0941 28.7247H27.4881C28.8732 28.7247 30 27.5377 30 26.0786V18.1897C30 16.7965 28.9725 15.6521 27.674 15.5514ZM23.7073 17.3668L22.5315 16.7696C20.5982 15.7937 18.3629 15.7576 16.3991 16.6706C15.8633 16.8814 14.6947 17.5884 14.0885 17.5648H10.0084C8.65497 17.5648 7.55385 18.6658 7.55385 20.0193V20.6629C7.54626 20.6549 7.53832 20.6473 7.53085 20.6391L4.61714 17.4765C4.44082 17.2851 4.24273 17.1249 4.03011 16.9964V8.24098H11.252V11.476C11.252 11.9633 11.6472 12.3585 12.1345 12.3585H17.7031C18.1905 12.3585 18.5856 11.9633 18.5856 11.476V8.24098H25.909V15.5514C24.8779 15.631 24.0181 16.3687 23.7073 17.3668ZM13.017 8.24098H16.8206V10.5935H13.017V8.24098ZM25.909 6.47599H18.5856V2.7728H25.909V6.47599H25.909ZM16.8206 2.7728V6.47605H13.017V2.7728H16.8206ZM11.252 2.7728V6.47605H4.03005V2.7728H11.252ZM20.8486 26.6289C18.1641 27.2437 16.5473 27.2189 13.5586 27.2189C9.91094 27.2189 8.14848 27.1599 5.92859 24.6375L1.95366 19.8187C1.26225 18.9183 2.51457 17.8555 3.31905 18.6722L6.23276 21.835C7.00282 22.6475 7.97186 23.0947 9.16623 23.121H17.2445C17.7318 23.121 18.127 22.7259 18.127 22.2385C18.127 21.7511 17.7318 21.356 17.2445 21.356H9.31878V20.0192C9.31878 19.639 9.62807 19.3296 10.0083 19.3296H14.0885C15.0077 19.3955 16.3344 18.6279 17.1432 18.271C18.614 17.5871 20.2881 17.6142 21.7342 18.3441L23.5824 19.2828V25.9749L20.8486 26.6289ZM28.2351 26.0785C28.2351 26.5644 27.9 26.9597 27.4882 26.9597H26.0942C25.6824 26.9597 25.3474 26.5644 25.3474 26.0785V18.1897C25.3474 17.7038 25.6824 17.3084 26.0942 17.3084H27.4882C27.9 17.3084 28.2351 17.7037 28.2351 18.1897V26.0785Z" fill="#3A3A3A"/>
</g>
<defs>
<clipPath id="clip0">
<rect width="30" height="30" fill="white"/>
</clipPath>
</defs>
</svg>
