<svg width="32" height="32" viewBox="0 0 32 32" fill="none" xmlns="http://www.w3.org/2000/svg">
<g clip-path="url(#clip0)">
<path d="M31.817 29.8735C31.5729 29.6295 31.1772 29.6295 30.9331 29.8735C30.3666 30.44 29.6136 30.7519 28.8125 30.7519C28.0114 30.7519 27.2584 30.44 26.6919 29.8735C26.5748 29.7563 26.4158 29.6905 26.25 29.6905C26.0843 29.6905 25.9253 29.7563 25.8081 29.8735C25.5401 30.1415 25.2299 30.3518 24.8929 30.4998L27.7868 20.238C27.8743 19.9274 27.7111 19.6012 27.4101 19.4852L25.625 18.7969V13.5996C25.625 12.1522 24.4474 10.9746 23 10.9746H22.625V9.70706C22.625 8.47612 21.6236 7.47463 20.3926 7.47463H19V5.09963C19 4.47932 18.4953 3.97463 17.875 3.97463H16.5625V2.7832C16.5625 1.93889 17.2494 1.25195 18.0938 1.25195H24.0964C23.9576 1.96332 23.3295 2.50195 22.5781 2.50195H20.5625C20.2174 2.50195 19.9375 2.78176 19.9375 3.12695C19.9375 3.47213 20.2174 3.75195 20.5625 3.75195H22.5781C24.1203 3.75195 25.375 2.49732 25.375 0.955076V0.626952C25.375 0.281765 25.0951 0.00195312 24.75 0.00195312H18.0938C16.5602 0.00195312 15.3125 1.24964 15.3125 2.7832V3.97463H14.125C13.5047 3.97463 13 4.47932 13 5.09963V7.47463H11.6075C10.3765 7.47463 9.37503 8.47606 9.37503 9.70706V10.9746H9.00003C7.5526 10.9746 6.37504 12.1522 6.37504 13.5996V18.7969L4.58991 19.4852C4.28891 19.6012 4.12567 19.9274 4.21323 20.238L7.1071 30.4998C6.77016 30.3518 6.45997 30.1415 6.19197 29.8735C6.07479 29.7563 5.91579 29.6905 5.75004 29.6905C5.58429 29.6905 5.42529 29.7563 5.3081 29.8735C4.74166 30.44 3.9886 30.7519 3.18754 30.7519C2.38648 30.7519 1.63342 30.44 1.06698 29.8735C0.822983 29.6295 0.427359 29.6295 0.183047 29.8735C-0.0610155 30.1176 -0.0610155 30.5133 0.183047 30.7574C0.98567 31.56 2.05261 32.0019 3.18754 32.0019C4.12498 32.0019 5.01604 31.7004 5.75004 31.1432C6.48404 31.7004 7.3751 32.0019 8.31253 32.0019C9.24997 32.0019 10.141 31.7004 10.875 31.1432C11.609 31.7004 12.5001 32.0019 13.4375 32.0019C14.375 32.0019 15.266 31.7004 16 31.1432C16.734 31.7004 17.6251 32.0019 18.5625 32.0019C19.5 32.0019 20.391 31.7004 21.125 31.1432C21.859 31.7004 22.7501 32.0019 23.6875 32.0019C24.6249 32.0019 25.516 31.7004 26.25 31.1432C26.984 31.7004 27.8751 32.0019 28.8125 32.0019C29.9474 32.0019 31.0144 31.56 31.8169 30.7574C32.0611 30.5133 32.0611 30.1176 31.817 29.8735ZM14.25 5.22463H17.75V7.47463H14.25V5.22463ZM10.625 9.707C10.625 9.16531 11.0658 8.72456 11.6075 8.72456H13.625H18.375H20.3926C20.9343 8.72456 21.375 9.16525 21.375 9.707V10.9746H10.625V9.707ZM7.62503 13.5996C7.62503 12.8414 8.24185 12.2246 9.00003 12.2246H23C23.7582 12.2246 24.375 12.8414 24.375 13.5996V18.315L16.2249 15.1727C16.0801 15.1169 15.92 15.1169 15.7752 15.1727L7.62503 18.315V13.5996ZM23.5243 30.7473C22.7846 30.7078 22.0946 30.4013 21.5669 29.8736C21.4498 29.7563 21.2908 29.6905 21.125 29.6905C20.9593 29.6905 20.8003 29.7563 20.6831 29.8735C20.1166 30.44 19.3636 30.7519 18.5625 30.7519C17.8448 30.7519 17.166 30.5008 16.625 30.0412V21.735C16.625 21.3898 16.3451 21.11 16 21.11C15.6549 21.11 15.375 21.3898 15.375 21.735V30.0412C14.8341 30.5008 14.1553 30.7519 13.4375 30.7519C12.6365 30.7519 11.8834 30.44 11.317 29.8735C11.1998 29.7563 11.0408 29.6905 10.875 29.6905C10.7093 29.6905 10.5503 29.7563 10.4331 29.8735C9.90534 30.4013 9.21541 30.7078 8.47572 30.7472L6.66779 24.3363L11.204 22.5873C11.526 22.4632 11.6865 22.1014 11.5623 21.7793C11.4382 21.4572 11.0763 21.2968 10.7543 21.421L6.32697 23.128L5.57085 20.4467L16 16.4257L26.4292 20.4467L25.6731 23.128L21.164 21.3895C20.8418 21.2653 20.4802 21.4257 20.356 21.7478C20.2318 22.0698 20.3922 22.4316 20.7143 22.5558L25.3323 24.3363L23.5243 30.7473Z" fill="black"/>
<path d="M16.4418 18.7808C16.3256 18.6645 16.1644 18.5977 16 18.5977C15.8356 18.5977 15.6744 18.6645 15.5581 18.7808C15.4419 18.897 15.375 19.0583 15.375 19.2227C15.375 19.387 15.4418 19.5483 15.5581 19.6645C15.6744 19.7808 15.8356 19.8477 16 19.8477C16.1644 19.8477 16.3256 19.7808 16.4418 19.6645C16.5581 19.5483 16.625 19.3877 16.625 19.2227C16.625 19.0583 16.5581 18.897 16.4418 18.7808Z" fill="black"/>
<path d="M11.8545 13.959H10.1045C9.75937 13.959 9.47949 14.2388 9.47949 14.584C9.47949 14.9292 9.75937 15.209 10.1045 15.209H11.8545C12.1996 15.209 12.4795 14.9292 12.4795 14.584C12.4795 14.2388 12.1997 13.959 11.8545 13.959Z" fill="black"/>
<path d="M22 13.959H20.25C19.9049 13.959 19.625 14.2388 19.625 14.584C19.625 14.9292 19.9049 15.209 20.25 15.209H22C22.3451 15.209 22.625 14.9292 22.625 14.584C22.625 14.2388 22.3451 13.959 22 13.959Z" fill="black"/>
</g>
<defs>
<clipPath id="clip0">
<rect width="32" height="32" fill="white"/>
</clipPath>
</defs>
</svg>
