<svg width="27" height="27" viewBox="0 0 27 27" fill="none" xmlns="http://www.w3.org/2000/svg">
<path d="M17.3501 3.33634C17.0788 1.43442 15.4233 0 13.4995 0C12.2623 0 11.0873 0.597015 10.3568 1.59758C10.2075 1.80164 10.2522 2.08788 10.4562 2.2371C10.6596 2.38578 10.9465 2.34167 11.0955 2.13735C11.6547 1.37221 12.5532 0.915297 13.4994 0.915297C14.9707 0.915297 16.2364 2.01172 16.444 3.46545C16.4767 3.69377 16.6725 3.85854 16.8966 3.85854C16.9179 3.85854 16.9399 3.85693 16.9617 3.85398C17.2119 3.81819 17.3858 3.58638 17.3501 3.33634Z" fill="black"/>
<path d="M23.9602 8.45955L22.5873 6.17137C22.5048 6.03341 22.3558 5.94922 22.1949 5.94922H20.8793C20.6267 5.94922 20.4217 6.15421 20.4217 6.4068C20.4217 6.65939 20.6267 6.86438 20.8793 6.86438H21.9359L22.7596 8.23726H4.24037L5.06409 6.86438H5.54876C5.80135 6.86438 6.00634 6.65939 6.00634 6.4068C6.00634 6.15421 5.80135 5.94922 5.54876 5.94922H4.80507C4.64419 5.94922 4.49523 6.03341 4.41265 6.17137L3.03977 8.45955C2.9549 8.60113 2.95289 8.77716 3.034 8.92062C3.11512 9.06407 3.26715 9.15283 3.43219 9.15283H23.5678C23.7328 9.15283 23.8847 9.06407 23.966 8.92062C24.0472 8.77716 24.0451 8.60086 23.9602 8.45955Z" fill="black"/>
<path d="M21.6785 4.23992C21.6145 4.13656 21.5122 4.06322 21.3939 4.0356L15.1555 2.57651C15.0374 2.54876 14.913 2.56941 14.8097 2.63323C14.7068 2.69731 14.6333 2.79961 14.6057 2.91786L14.1352 4.92891C14.0776 5.17493 14.2304 5.42108 14.4766 5.47846C14.7226 5.53611 14.969 5.38327 15.0264 5.13712L15.3927 3.57185L20.7398 4.82259L19.8996 8.415C19.8419 8.66102 19.9948 8.90718 20.2409 8.96456C20.2762 8.97274 20.3112 8.97663 20.3457 8.97663C20.5536 8.97663 20.7417 8.83424 20.7906 8.62335L21.7351 4.58542C21.763 4.46731 21.7426 4.34289 21.6785 4.23992Z" fill="black"/>
<path d="M13.7419 5.32136L13.3249 1.79464C13.3107 1.67411 13.2492 1.56404 13.1537 1.48896C13.0583 1.41388 12.9377 1.37956 12.8167 1.39377L5.16259 2.29848C4.91175 2.32824 4.73236 2.55562 4.76199 2.80674L5.45714 8.6888C5.48476 8.92168 5.68225 9.09289 5.91111 9.09289C5.92894 9.09289 5.9473 9.09168 5.96554 9.08967C6.21625 9.05991 6.39564 8.83252 6.36614 8.58141L5.72461 3.15344L12.4698 2.35626L12.8329 5.42848C12.8626 5.67946 13.089 5.85777 13.3411 5.82935C13.592 5.79986 13.7714 5.57234 13.7419 5.32136Z" fill="black"/>
<path d="M17.3609 8.52014L16.4526 4.74284C16.4241 4.625 16.35 4.52297 16.2466 4.45955C16.1433 4.39668 16.0193 4.37697 15.9006 4.40512L8.52848 6.17807C8.28273 6.23706 8.1315 6.48428 8.19049 6.73003L8.64445 8.61801C8.70344 8.86403 8.95067 9.01539 9.19628 8.956C9.44204 8.89701 9.59327 8.64979 9.53427 8.40403L9.18717 6.9609L15.6695 5.4022L16.4708 8.73438C16.5211 8.9442 16.7088 9.08498 16.9154 9.08498C16.9509 9.08498 16.9868 9.08082 17.0229 9.07211C17.2687 9.01298 17.4199 8.76589 17.3609 8.52014Z" fill="black"/>
<path d="M24.0254 8.6724C24.0128 8.4292 23.812 8.23828 23.5683 8.23828H3.43265C3.18891 8.23828 2.98807 8.42906 2.97547 8.6724L2.06017 26.5198C2.05374 26.6451 2.09905 26.7676 2.18539 26.8585C2.27187 26.9493 2.39173 27.0009 2.51722 27.0009H24.4833C24.6086 27.0009 24.7286 26.9494 24.8155 26.8585C24.9017 26.7676 24.947 26.6452 24.9407 26.5198L24.0254 8.6724ZM2.9988 26.0856L3.86717 9.15344H23.1332L24.0016 26.0856H2.9988Z" fill="black"/>
<path d="M16.9325 10.0684C16.1754 10.0684 15.5596 10.6841 15.5596 11.4412C15.5596 12.1983 16.1754 12.8141 16.9325 12.8141C17.6895 12.8141 18.3053 12.1983 18.3053 11.4412C18.3053 10.6841 17.6895 10.0684 16.9325 10.0684ZM16.9325 11.899C16.68 11.899 16.4749 11.6937 16.4749 11.4414C16.4749 11.1891 16.6801 10.9838 16.9325 10.9838C17.1848 10.9838 17.39 11.1891 17.39 11.4414C17.39 11.6937 17.1848 11.899 16.9325 11.899Z" fill="black"/>
<path d="M10.0672 10.0684C9.31012 10.0684 8.69434 10.6841 8.69434 11.4412C8.69434 12.1983 9.31012 12.8141 10.0672 12.8141C10.8243 12.8141 11.4401 12.1983 11.4401 11.4412C11.4401 10.6841 10.8243 10.0684 10.0672 10.0684ZM10.0672 11.899C9.8149 11.899 9.60963 11.6937 9.60963 11.4414C9.60963 11.1891 9.8149 10.9838 10.0672 10.9838C10.3195 10.9838 10.5248 11.1891 10.5248 11.4414C10.5248 11.6937 10.3195 11.899 10.0672 11.899Z" fill="black"/>
<path d="M16.9323 11.4414H16.8971C16.6445 11.4414 16.4395 11.6464 16.4395 11.899C16.4395 11.9615 16.4518 12.0211 16.4747 12.0754V14.4159C16.4747 16.056 15.1403 17.3905 13.5001 17.3905C11.8599 17.3905 10.5255 16.0561 10.5255 14.4159V11.8991C10.5255 11.6465 10.3205 11.4415 10.0679 11.4415C9.81535 11.4415 9.61035 11.6465 9.61035 11.8991V14.416C9.61035 16.5609 11.3553 18.3058 13.5001 18.3058C15.645 18.3058 17.3899 16.5609 17.3899 14.416V11.8991C17.3899 11.6465 17.1849 11.4414 16.9323 11.4414Z" fill="black"/>
</svg>
