<svg xmlns="http://www.w3.org/2000/svg" viewBox="0 0 82.21 89.6">
  <defs>
    <style>
      .cls-1 {
        fill: #fcb408;
      }

      .cls-2 {
        fill: #f4f6fd;
      }
       .smoke1 {
    opacity: 0;
    animation: smoke1 1s infinite;
  }

  .smoke2 {
    opacity: 0;
    animation: smoke2 2s infinite;
  }

  .smoke3 {
    opacity: 0;
    animation: smoke3 3s infinite;
  }

  .smoke4 {
    opacity: 0;
    animation: smoke4 3s infinite;
  }

  .smoke5 {
    opacity: 0;
    animation: smoke5 2s infinite;
  }

  .smoke6 {
    opacity: 0;
    animation: smoke6 3s infinite;
  }

  @keyframes smoke1 {
    0% {
      transform: translateX(20px);
    }

    49% {
      transform: translateX(-7px);
    }

    50% {
      opacity: 1;
    }
  }

  @keyframes smoke2 {
    0% {
      transform: translateX(20px);
    }

    49% {
      transform: translateX(-7px);
    }

    50% {
      opacity: 1;
    }
  }

  @keyframes smoke3 {
    0% {
      transform: translateX(20px);
    }

    49% {
      transform: translateX(-7px);
    }

    50% {
      opacity: 1;
    }
  }

  @keyframes smoke4 {
    0% {
      transform: translateX(20px);
    }

    49% {
      transform: translateX(-7px);
    }

    50% {
      opacity: 1;
    }
  }

  @keyframes smoke5 {
    0% {
      transform: translateX(20px);
    }

    49% {
      transform: translateX(-7px);
    }

    50% {
      opacity: 1;
    }
  }

  @keyframes smoke6 {
    0% {
      transform: translateX(20px);
    }

    49% {
      transform: translateX(-7px);
    }

    50% {
      opacity: 1;
    }
  }
    </style>
   
  </defs>
  <g id="Слой_2" data-name="Слой 2">
    <g id="Слой_1-2" data-name="Слой 1">
      <path class="cls-1" d="M76.1,39.6a38,38,0,0,0-11.5-1.8H59.8L55,28.5a3.81,3.81,0,0,0-.3-7.6H51l-.8-1.5a4.21,4.21,0,0,0,2-1,4.2,4.2,0,0,0,1.2-2.6A3.71,3.71,0,0,0,49.7,12l-3.3-.1L40.7.9a1.45,1.45,0,0,0-1-.7L35.3,0a1.22,1.22,0,0,0-1.2,1.4L39,38.2c-10.2.4-20.2,1-27.4,1.4L8,30.9a1.23,1.23,0,0,0-1.1-.7l-5.1-.1A1.16,1.16,0,0,0,.6,31.3L0,56.9a1.16,1.16,0,0,0,1.2,1.2l5.1.1a1.23,1.23,0,0,0,1.1-.7l4-8.6c7.1.8,17.1,1.8,27.3,2.6l-.7,4-1,5.6-4.8,27a1.21,1.21,0,0,0,1.2,1.4l4.3.1a1.38,1.38,0,0,0,1.1-.6L45,78.2l3.3.1a3.75,3.75,0,0,0,2.8-6.4,4.53,4.53,0,0,0-1.9-1.1l.8-1.5,3.6.1a3.71,3.71,0,0,0,3.8-3.7,3.87,3.87,0,0,0-3.2-3.8l5.2-9.1c1.7.1,3.3.1,4.8.1a39.88,39.88,0,0,0,11.6-1.3c5.2-1.5,6.4-4.1,6.4-6C82.3,44,81.2,41.4,76.1,39.6ZM54.6,23.4a1.35,1.35,0,0,1,1.3,1.4,1.29,1.29,0,0,1-1.4,1.3h-.8l-1.4-2.8Zm-5-9.1a1.34,1.34,0,0,1,1.3,1.4A1.29,1.29,0,0,1,49.5,17H49l-1.4-2.8ZM36.7,2.4h2.2L57,37.8c-4.9,0-10.3.2-15.6.3ZM2.9,32.5l3.1.1,3,7.2c-2.8.2-5,.3-6.3.4ZM5.6,55.8l-3.1-.1L2.6,48c1.3.2,3.5.4,6.3.7ZM49.7,74.7A1.29,1.29,0,0,1,48.3,76h-2l1.5-2.7h.5A1.37,1.37,0,0,1,49.7,74.7ZM55,65.8a1.34,1.34,0,0,1-1.4,1.3H51.3l1.5-2.7h.8A1.43,1.43,0,0,1,55,65.8ZM37.1,87.3l-2.2-.1,4.6-26,1-5.8.7-3.7c5.3.4,10.7.8,15.6,1Zm38-37.8a38.6,38.6,0,0,1-10.9,1.2c-20.7-.5-55-4.3-61.6-5.1l.1-2.9c6.6-.5,41.1-2.8,61.7-2.4a40.39,40.39,0,0,1,10.8,1.6c2.1.7,4.6,2,4.5,3.9C79.8,47.8,77.3,48.9,75.1,49.5Z"></path>
      <path class="cls-2" d="M51,15.7A1.29,1.29,0,0,1,49.6,17h-.5l-1.4-2.8h2A1.51,1.51,0,0,1,51,15.7Z"></path>
      <path class="cls-2" d="M55.9,24.8a1.29,1.29,0,0,1-1.4,1.3h-.8l-1.4-2.8h2.3A1.51,1.51,0,0,1,55.9,24.8Z"></path>
      <path class="cls-2" d="M49.7,74.7A1.29,1.29,0,0,1,48.3,76h-2l1.5-2.7h.5A1.37,1.37,0,0,1,49.7,74.7Z"></path>
      <path class="cls-2" d="M55,65.8a1.34,1.34,0,0,1-1.4,1.3H51.3l1.5-2.7h.8A1.43,1.43,0,0,1,55,65.8Z"></path>
      <path class="cls-2" d="M56.7,52.8,37.1,87.3l-2.2-.1,4.6-26,1-5.8.7-3.7C46.5,52.2,51.8,52.6,56.7,52.8Z"></path>
      <path class="cls-2" d="M8.9,48.7,5.6,55.8l-3.1-.1L2.6,48C3.9,48.2,6.1,48.4,8.9,48.7Z"></path>
      <path class="cls-2" d="M9.1,39.8c-2.8.2-5,.3-6.3.4L3,32.5l3.1.1Z"></path>
      <path class="cls-2" d="M57,37.8c-4.9,0-10.3.2-15.6.3L36.7,2.4h2.2Z"></path>
      <path class="cls-2" d="M79.8,45.8c-.1,1.9-2.6,3.1-4.7,3.7a38.6,38.6,0,0,1-10.9,1.2c-20.7-.5-55-4.3-61.6-5.1l.1-2.9c6.6-.5,41.1-2.8,61.7-2.4a40.39,40.39,0,0,1,10.8,1.6C77.4,42.6,79.9,43.9,79.8,45.8Z"></path>
      <path class="cls-1 smoke5" d="M27.6,87l-14.5-.3a1.2,1.2,0,0,0-1.2,1.1,1.18,1.18,0,0,0,1.2,1.3l14.5.3a1.16,1.16,0,0,0,1.2-1.2A1.29,1.29,0,0,0,27.6,87Z"></path>
      <path class="cls-1 smoke6" d="M27.8,79.8l-9.1-.2a1.2,1.2,0,0,0-1.2,1.1A1.18,1.18,0,0,0,18.7,82l9.1.2a1.2,1.2,0,0,0,0-2.4Z"></path>
      <path class="cls-1 smoke4" d="M29.8,72.6l-6.4-.1a1.2,1.2,0,0,0-1.2,1.1,1.18,1.18,0,0,0,1.2,1.3l6.4.1A1.16,1.16,0,0,0,31,73.8,1.22,1.22,0,0,0,29.8,72.6Z"></path>
      <path class="cls-1 smoke2" d="M14.5,2.5,29,2.8a1.16,1.16,0,0,0,1.2-1.2A1.16,1.16,0,0,0,29,.4L14.6.1a1.16,1.16,0,0,0-1.2,1.2A1.13,1.13,0,0,0,14.5,2.5Z"></path>
      <path class="cls-1 smoke3" d="M30.1,8.9a1.16,1.16,0,0,0-1.2-1.2l-9.1-.2a1.2,1.2,0,0,0-1.2,1.1,1.18,1.18,0,0,0,1.2,1.3l9.1.2A1.29,1.29,0,0,0,30.1,8.9Z"></path>
      <path class="cls-1 smoke1" d="M23,16a1.16,1.16,0,0,0,1.2,1.2l6.4.1a1.2,1.2,0,0,0,0-2.4l-6.4-.1A1.22,1.22,0,0,0,23,16Z"></path>
    </g>
  </g>
</svg>