<svg width="13" height="11" viewBox="0 0 13 11" fill="none" xmlns="http://www.w3.org/2000/svg">
<path d="M12.25 1.45703L10.3906 10.1523C10.2448 10.7721 9.90755 10.9362 9.37891 10.6445L6.5625 8.56641L5.19531 9.87891C5.01302 10.0612 4.82161 10.1523 4.62109 10.1523L4.83984 7.28125L10.0625 2.57812C10.1901 2.45052 10.1901 2.3776 10.0625 2.35938C9.95312 2.32292 9.83464 2.35026 9.70703 2.44141L3.25391 6.51562L0.464844 5.64062C0.154948 5.54948 0.00911458 5.41276 0.0273438 5.23047C0.0455729 5.04818 0.236979 4.89323 0.601562 4.76562L11.457 0.554688C11.7305 0.463542 11.9492 0.5 12.1133 0.664062C12.2773 0.809896 12.3229 1.07422 12.25 1.45703Z" fill="#BEBEBE"/>
</svg>
