<svg width="31" height="31" viewBox="0 0 31 31" fill="none" xmlns="http://www.w3.org/2000/svg">
<g clip-path="url(#clip0)">
<path d="M9.46205 25.3434C9.19207 25.1109 8.78392 25.1419 8.55142 25.4132L4.67643 29.934C4.44393 30.2053 4.47493 30.6122 4.74618 30.8447C4.86757 30.9493 5.01743 31.0009 5.16595 31.0009C5.34807 31.0009 5.52893 30.9247 5.6568 30.7749L9.5318 26.254C9.7643 25.9828 9.7333 25.5759 9.46205 25.3434Z" fill="black"/>
<path d="M26.3238 29.934L22.4488 25.4132C22.2163 25.1419 21.8094 25.1109 21.5382 25.3434C21.2669 25.5759 21.2359 25.9841 21.4684 26.254L25.3434 30.7749C25.47 30.9248 25.6508 31.0009 25.8329 31.0009C25.9815 31.0009 26.1313 30.9493 26.254 30.8447C26.5253 30.6122 26.5563 30.204 26.3238 29.934Z" fill="black"/>
<path d="M24.5407 28.416H6.45738C6.10088 28.416 5.81152 28.7054 5.81152 29.0619C5.81152 29.4184 6.10088 29.7077 6.45738 29.7077H24.5407C24.8972 29.7077 25.1866 29.4184 25.1866 29.0619C25.1865 28.7054 24.8972 28.416 24.5407 28.416Z" fill="black"/>
<path d="M25.1532 23.6919L23.8615 19.8169C23.7556 19.4953 23.4159 19.3106 23.093 19.3945L15.4993 21.292L7.90553 19.3933C7.58131 19.3093 7.24418 19.494 7.13701 19.8156L5.84537 23.6906C5.78985 23.8585 5.80535 24.0407 5.88672 24.197C5.96937 24.3533 6.11147 24.4682 6.2807 24.5173L15.3223 27.1007C15.3805 27.1175 15.4399 27.1252 15.4993 27.1252C15.5587 27.1252 15.6182 27.1175 15.6763 27.102L24.7179 24.5186C24.8872 24.4695 25.0292 24.3546 25.1119 24.1983C25.1944 24.0419 25.2087 23.8585 25.1532 23.6919ZM15.4992 25.8077L7.2842 23.4607L8.17285 20.7934L15.3429 22.5863C15.4449 22.6134 15.5534 22.6134 15.6555 22.5863L22.8255 20.7934L23.7141 23.4607L15.4992 25.8077Z" fill="black"/>
<path d="M23.6546 9.48376L15.6346 7.76453C15.5455 7.74516 15.4525 7.74516 15.3634 7.76453L7.34342 9.48376C6.45604 9.67364 5.81152 10.4706 5.81152 11.3786V18.1948C5.81152 18.7114 6.01302 19.1984 6.37854 19.5652L7.29177 20.4785C7.54365 20.7303 7.95313 20.7303 8.205 20.4785C8.45688 20.2266 8.45688 19.8171 8.205 19.5652L7.29177 18.652C7.17165 18.5306 7.10317 18.364 7.10317 18.1948V11.3786C7.10317 11.0751 7.31757 10.8103 7.61467 10.7457L15.499 9.05624L23.3834 10.747C23.6791 10.8103 23.8936 11.0764 23.8936 11.3786V18.1948C23.8936 18.3653 23.8251 18.5319 23.705 18.652L22.7918 19.5652C22.5399 19.8171 22.5399 20.2266 22.7918 20.4785C22.9184 20.6037 23.0837 20.6671 23.249 20.6671C23.4144 20.6671 23.5797 20.6038 23.7063 20.4785L24.6195 19.5652C24.985 19.1984 25.1865 18.7115 25.1865 18.1948V11.3786C25.1865 10.4693 24.542 9.67364 23.6546 9.48376Z" fill="black"/>
<path d="M15.4997 10.334C13.7198 10.334 12.2705 11.7832 12.2705 13.5631C12.2705 15.343 13.7198 16.7923 15.4997 16.7923C17.2796 16.7923 18.7288 15.343 18.7288 13.5631C18.7288 11.7832 17.2796 10.334 15.4997 10.334ZM15.4997 15.5006C14.4314 15.5006 13.5622 14.6314 13.5622 13.5631C13.5622 12.4949 14.4314 11.6256 15.4997 11.6256C16.5679 11.6256 17.4372 12.4949 17.4372 13.5631C17.4372 14.6314 16.5679 15.5006 15.4997 15.5006Z" fill="black"/>
<path d="M9.04102 14.209C7.97279 14.209 7.10352 15.0783 7.10352 16.1465C7.10352 17.2147 7.97279 18.084 9.04102 18.084C10.1092 18.084 10.9785 17.2147 10.9785 16.1465C10.9785 15.0783 10.1092 14.209 9.04102 14.209ZM9.04102 16.7923C8.68452 16.7923 8.39516 16.5029 8.39516 16.1464C8.39516 15.7899 8.68452 15.5006 9.04102 15.5006C9.39752 15.5006 9.68687 15.79 9.68687 16.1465C9.68687 16.503 9.39752 16.7923 9.04102 16.7923Z" fill="black"/>
<path d="M21.958 14.209C20.8898 14.209 20.0205 15.0783 20.0205 16.1465C20.0205 17.2147 20.8898 18.084 21.958 18.084C23.0262 18.084 23.8955 17.2147 23.8955 16.1465C23.8955 15.0783 23.0262 14.209 21.958 14.209ZM21.958 16.7923C21.6015 16.7923 21.3122 16.5029 21.3122 16.1464C21.3122 15.7899 21.6015 15.5006 21.958 15.5006C22.3145 15.5006 22.6039 15.79 22.6039 16.1465C22.6039 16.503 22.3145 16.7923 21.958 16.7923Z" fill="black"/>
<path d="M22.4279 3.65122L15.6557 1.95784C15.5537 1.93072 15.4452 1.93072 15.3431 1.95784L8.57087 3.65122C7.70674 3.86695 7.10352 4.64061 7.10352 5.53059V9.68846C7.10352 10.045 7.39287 10.3343 7.74937 10.3343C8.10587 10.3343 8.39522 10.045 8.39522 9.68846V5.53059C8.39522 5.23349 8.59672 4.97647 8.88347 4.90411L15.4994 3.25076L22.114 4.90411C22.402 4.97647 22.6035 5.23349 22.6035 5.53059V9.68846C22.6035 10.045 22.8929 10.3343 23.2494 10.3343C23.6059 10.3343 23.8952 10.045 23.8952 9.68846V5.53059C23.8952 4.63934 23.292 3.86695 22.4279 3.65122Z" fill="black"/>
<path d="M15.4994 1.9375C15.1429 1.9375 14.8535 2.22685 14.8535 2.58335V8.39585C14.8535 8.75235 15.1429 9.04171 15.4994 9.04171C15.8559 9.04171 16.1452 8.75235 16.1452 8.39585V2.58335C16.1452 2.22685 15.8559 1.9375 15.4994 1.9375Z" fill="black"/>
<path d="M16.7914 0H14.208C13.1398 0 12.2705 0.869272 12.2705 1.9375V3.22915C12.2705 3.58565 12.5599 3.875 12.9164 3.875C13.2729 3.875 13.5622 3.58565 13.5622 3.22915V1.9375C13.5622 1.581 13.8516 1.29165 14.2081 1.29165H16.7914C17.1479 1.29165 17.4373 1.581 17.4373 1.9375V3.22915C17.4373 3.58565 17.7266 3.875 18.0831 3.875C18.4396 3.875 18.729 3.58565 18.729 3.22915V1.9375C18.7289 0.869272 17.8595 0 16.7914 0Z" fill="black"/>
<path d="M21.958 25.834H9.04136C8.68486 25.834 8.39551 26.1233 8.39551 26.4798C8.39551 26.8363 8.68486 27.1257 9.04136 27.1257H21.958C22.3145 27.1257 22.6039 26.8363 22.6039 26.4798C22.6039 26.1233 22.3145 25.834 21.958 25.834Z" fill="black"/>
</g>
<defs>
<clipPath id="clip0">
<rect width="31" height="31" fill="white"/>
</clipPath>
</defs>
</svg>
