<svg width="30" height="28" viewBox="0 0 30 28" fill="none" xmlns="http://www.w3.org/2000/svg">
<path d="M5.01876 5.47376C5.28315 5.47376 5.49749 5.27371 5.49749 5.02695V0.893617H24.5024V5.02695C24.5024 5.27371 24.7167 5.47376 24.9811 5.47376C25.2455 5.47376 25.4598 5.27371 25.4598 5.02695V0.446809C25.4598 0.200051 25.2455 0 24.9811 0H5.01876C4.75438 0 4.54004 0.200051 4.54004 0.446809V5.02695C4.54004 5.27371 4.75438 5.47376 5.01876 5.47376Z" fill="#1C2333"/>
<path d="M25.4595 17.2895V11.5801C25.4595 11.3333 25.2452 11.1333 24.9808 11.1333C24.7164 11.1333 24.5021 11.3333 24.5021 11.5801V17.2492H22.9583V10.2397H26.8957C27.1601 10.2397 27.3744 10.0396 27.3744 9.79284V6.81412C27.3744 6.56736 27.1601 6.36731 26.8957 6.36731H22.9583V5.02689C22.9583 4.78013 22.744 4.58008 22.4796 4.58008H7.51966C7.25528 4.58008 7.04094 4.78013 7.04094 5.02689V6.36731H3.10354C2.83915 6.36731 2.62481 6.56736 2.62481 6.81412V9.79284C2.62481 10.0396 2.83915 10.2397 3.10354 10.2397H7.04094V17.2492H5.49715V11.5801C5.49715 11.3333 5.28281 11.1333 5.01843 11.1333C4.75405 11.1333 4.53971 11.3333 4.53971 11.5801V17.2895C3.27154 17.5012 2.30566 18.5375 2.30566 19.7812V24.5168C2.30566 24.7635 2.52 24.9636 2.78439 24.9636H2.94396V27.5531C2.94396 27.7999 3.1583 27.9999 3.42269 27.9999H7.51966C7.78405 27.9999 7.99839 27.7999 7.99839 27.5531V26.304C7.99839 26.0573 7.78405 25.8572 7.51966 25.8572C7.25528 25.8572 7.04094 26.0573 7.04094 26.304V27.1063H3.90141V24.9636H26.0978V27.1063H22.9582V26.304C22.9582 26.0573 22.7439 25.8572 22.4795 25.8572C22.2151 25.8572 22.0008 26.0573 22.0008 26.304V27.5531C22.0008 27.7999 22.2151 27.9999 22.4795 27.9999H26.5765C26.8409 27.9999 27.0552 27.7999 27.0552 27.5531V24.9636H27.2148C27.4792 24.9636 27.6935 24.7635 27.6935 24.5168V19.7812C27.6936 18.5375 26.7277 17.5012 25.4595 17.2895ZM24.9808 18.1429C25.9487 18.1429 26.7361 18.8778 26.7361 19.7812V21.687H22.9583V18.1429H24.9808ZM26.7361 24.07H3.26311V22.5806H26.7361V24.07H26.7361ZM7.99845 10.2397H22.0009V21.6869H7.99845V10.2397ZM26.417 9.34604H25.4596V7.26093H26.417V9.34604ZM24.5022 7.26093V9.34604H22.9584V7.26093H24.5022ZM22.0009 9.34604H15.4784V5.4737H22.0009V9.34604ZM7.99845 5.4737H14.521V9.34604H7.99845V5.4737ZM7.04101 9.34604H5.49722V7.26093H7.04101V9.34604ZM3.58232 7.26093H4.53977V9.34604H3.58232V7.26093ZM5.01849 18.1429H7.04101V21.687H3.26318V19.7812C3.26318 18.8778 4.05064 18.1429 5.01849 18.1429Z" fill="#1C2333"/>
<path d="M9.43478 15.4319H20.5648C20.8292 15.4319 21.0436 15.2318 21.0436 14.985C21.0436 13.5889 19.8267 12.4531 18.3308 12.4531H11.6688C10.173 12.4531 8.95605 13.5889 8.95605 14.985C8.95605 15.2318 9.1704 15.4319 9.43478 15.4319ZM11.6688 13.3467H18.3308C19.1328 13.3467 19.8109 13.8513 20.0197 14.5382H9.97988C10.1887 13.8513 10.8669 13.3467 11.6688 13.3467Z" fill="#1C2333"/>
<path d="M20.5649 16.3262H9.43478C9.1704 16.3262 8.95605 16.5262 8.95605 16.773C8.95605 17.0197 9.1704 17.2198 9.43478 17.2198H20.5648C20.8292 17.2198 21.0436 17.0197 21.0436 16.773C21.0436 16.5262 20.8293 16.3262 20.5649 16.3262Z" fill="#1C2333"/>
<path d="M20.5649 18.1133H9.43478C9.1704 18.1133 8.95605 18.3133 8.95605 18.5601C8.95605 18.8068 9.1704 19.0069 9.43478 19.0069H20.5648C20.8292 19.0069 21.0436 18.8068 21.0436 18.5601C21.0436 18.3133 20.8293 18.1133 20.5649 18.1133Z" fill="#1C2333"/>
<path d="M20.5649 19.9004H9.43478C9.1704 19.9004 8.95605 20.1004 8.95605 20.3472C8.95605 20.594 9.1704 20.794 9.43478 20.794H20.5648C20.8292 20.794 21.0436 20.594 21.0436 20.3472C21.0436 20.1004 20.8293 19.9004 20.5649 19.9004Z" fill="#1C2333"/>
</svg>
