<svg width="13" height="13" viewBox="0 0 13 13" fill="none" xmlns="http://www.w3.org/2000/svg">
<path d="M10.418 2.40234C11.6393 3.6237 12.25 5.05469 12.25 6.69531C12.25 8.3724 11.6484 9.80339 10.4453 10.9883C9.24219 12.1732 7.80208 12.7656 6.125 12.7656C5.08594 12.7656 4.11979 12.5195 3.22656 12.0273L0 12.875L0.875 9.73047C0.328125 8.80078 0.0546875 7.78906 0.0546875 6.69531C0.0546875 5.01823 0.647135 3.58724 1.83203 2.40234C3.01693 1.21745 4.44792 0.625 6.125 0.625C7.80208 0.625 9.23307 1.21745 10.418 2.40234ZM6.125 11.7539C7.51042 11.7539 8.70443 11.2617 9.70703 10.2773C10.7096 9.27474 11.2109 8.08073 11.2109 6.69531C11.2292 5.34635 10.7188 4.16146 9.67969 3.14062C8.69531 2.15625 7.51042 1.66406 6.125 1.66406C4.73958 1.66406 3.54557 2.15625 2.54297 3.14062C1.55859 4.125 1.06641 5.3099 1.06641 6.69531C1.06641 7.66146 1.33073 8.55469 1.85938 9.375L1.96875 9.56641L1.44922 11.4258L3.36328 10.9336L3.55469 11.043C4.33854 11.5169 5.19531 11.7539 6.125 11.7539ZM8.88672 7.95312C9.06901 8.04427 9.16927 8.10807 9.1875 8.14453C9.24219 8.25391 9.20573 8.5 9.07812 8.88281C9.02344 9.02865 8.8776 9.18359 8.64062 9.34766C8.42188 9.49349 8.23047 9.57552 8.06641 9.59375C7.59245 9.66667 6.98177 9.53906 6.23438 9.21094C5.34115 8.82812 4.48438 8.0625 3.66406 6.91406C3.24479 6.34896 3.03516 5.82943 3.03516 5.35547C3.03516 4.89974 3.20833 4.47135 3.55469 4.07031C3.68229 3.96094 3.81901 3.90625 3.96484 3.90625C4.11068 3.90625 4.21094 3.90625 4.26562 3.90625C4.42969 3.90625 4.53906 3.98828 4.59375 4.15234C4.90365 4.89974 5.05859 5.27344 5.05859 5.27344C5.11328 5.38281 5.1224 5.47396 5.08594 5.54688C5.01302 5.71094 4.92188 5.85677 4.8125 5.98438C4.70312 6.09375 4.63932 6.15755 4.62109 6.17578C4.60286 6.19401 4.61198 6.25781 4.64844 6.36719C4.90365 6.84115 5.17708 7.19661 5.46875 7.43359C5.77865 7.67057 6.1888 7.91667 6.69922 8.17188C6.84505 8.24479 6.95443 8.23568 7.02734 8.14453C7.26432 7.87109 7.42839 7.67057 7.51953 7.54297C7.59245 7.43359 7.70182 7.40625 7.84766 7.46094C7.99349 7.51562 8.33984 7.67969 8.88672 7.95312Z" fill="#BEBEBE"/>
</svg>
