<svg width="116" height="116" viewBox="0 0 116 116" fill="none" xmlns="http://www.w3.org/2000/svg">
<g clip-path="url(#clip0)">
<path d="M75.997 91.4931L79.2975 91.5658C81.3754 91.6108 83.1028 89.9572 83.1487 87.8794C83.1703 86.8728 82.7993 85.918 82.1027 85.1903C81.5801 84.6443 80.9211 84.2754 80.1993 84.1165L81.0519 82.6195L84.6253 82.6972C86.7036 82.7427 88.4311 81.0891 88.4761 79.0113C88.5184 77.098 87.1186 75.4853 85.2744 75.2054L90.4663 66.0904C92.1253 66.1579 93.727 66.2106 95.2533 66.244C99.6524 66.3397 103.78 65.8901 106.878 64.9772C112.112 63.4338 113.26 60.8843 113.3 59.0173C113.342 57.1507 112.306 54.5539 107.144 52.7827C104.09 51.7353 99.9855 51.1052 95.5865 51.0094C94.0601 50.9761 92.4577 50.9578 90.7977 50.9532L86.0089 41.6194C87.8631 41.4209 89.332 39.8709 89.3743 37.9577C89.4193 35.8798 87.7662 34.1519 85.6883 34.1069L82.1145 34.0287L81.3277 32.4955C82.0562 32.3678 82.7307 32.0281 83.2767 31.5055C84.0039 30.8094 84.4168 29.8712 84.4388 28.8651C84.4847 26.7873 82.8307 25.0594 80.7528 25.0144L77.4528 24.9422L71.7863 13.8975C71.584 13.5043 71.1835 13.2533 70.742 13.2441L66.4121 13.1494C65.6854 13.1331 65.0978 13.7895 65.1934 14.5098L70.0775 51.3869C59.8849 51.7743 49.8574 52.3476 42.7313 52.7973L39.0793 44.0705C38.8956 43.6319 38.4712 43.3426 37.9959 43.3322L32.864 43.22C32.1999 43.2059 31.6498 43.7324 31.6353 44.3961L31.0742 70.0545C31.0595 70.7099 31.595 71.2694 32.2508 71.2837L37.3818 71.3959C37.8571 71.4063 38.2945 71.1358 38.4968 70.7052L42.5268 62.1473C49.6264 62.908 59.6189 63.9187 69.7857 64.7513L69.0805 68.7271C68.9554 69.4329 69.4951 70.1047 70.2103 70.1389C70.8064 70.1673 71.3456 69.7339 71.4495 69.1475L72.1945 64.9449C77.527 65.3649 82.848 65.727 87.7666 65.9684L68.1174 100.466L65.9075 100.417L70.5102 74.448C70.6262 73.794 70.1899 73.1697 69.5358 73.0537C68.881 72.9376 68.2567 73.374 68.1411 74.0285L63.2938 101.38C63.1667 102.095 63.7251 102.777 64.4518 102.792L68.7817 102.887C69.2232 102.897 69.6347 102.664 69.8536 102.28L75.997 91.4931ZM85.6357 36.5126C86.3787 36.5289 86.9852 37.1626 86.969 37.9055C86.9525 38.6572 86.3278 39.2552 85.5761 39.2388L84.7786 39.2213L83.3634 36.4625L85.6357 36.5126ZM80.7002 27.4201C81.4515 27.4361 82.0499 28.0612 82.0335 28.813C82.0171 29.5647 81.3924 30.1627 80.6406 30.1462L80.1164 30.1343L78.7012 27.3764L80.7002 27.4201ZM67.7626 15.5849L69.9725 15.6337L88.0953 50.957C83.1704 50.9836 77.8387 51.1128 72.4924 51.2988L67.7626 15.5849ZM37.1616 45.7208L40.1914 52.9601C37.3405 53.1457 35.1434 53.2985 33.8451 53.3907L34.0143 45.6515L37.1616 45.7208ZM33.7922 55.807C40.3472 55.3378 74.8854 52.9632 95.5343 53.4147C99.6315 53.5039 103.579 54.1037 106.363 55.0589C108.454 55.7757 110.937 57.0356 110.895 58.9651C110.853 60.8946 108.317 62.0444 106.197 62.6695C103.373 63.5021 99.4035 63.9278 95.3059 63.8382C74.6588 63.3867 40.2565 59.5045 33.7279 58.7497L33.7922 55.807ZM36.6531 68.9735L33.5062 68.9047L33.6755 61.1655C34.9677 61.3145 37.1564 61.5636 39.9964 61.8736L36.6531 68.9735ZM79.4097 86.4339C80.1615 86.4503 80.7594 87.075 80.743 87.8268C80.7266 88.5785 80.1019 89.1765 79.3501 89.16L77.3511 89.1163L78.8851 86.4224L79.4097 86.4339ZM84.738 77.5658C85.4893 77.5818 86.0872 78.2074 86.0712 78.9587C86.055 79.7016 85.4213 80.3082 84.6784 80.2919L82.4056 80.2422L83.94 77.5479L84.738 77.5658Z" fill="#FCB408"/>
<path d="M58.7178 100.184L44.2033 99.867C43.5841 99.8539 43.0412 100.333 42.9798 100.949C42.9114 101.638 43.4589 102.258 44.1507 102.273L58.6652 102.59C59.3298 102.605 59.8798 102.078 59.8944 101.414C59.9089 100.75 59.3819 100.199 58.7178 100.184Z" fill="#FCB408"/>
<path d="M58.8234 95.3322C59.4875 95.3471 60.038 94.8202 60.0521 94.156C60.0671 93.4919 59.5401 92.9414 58.876 92.9273L49.8046 92.7285C49.1853 92.7154 48.6424 93.1945 48.581 93.811C48.5126 94.4995 49.0601 95.1191 49.7519 95.1342L58.8234 95.3322Z" fill="#FCB408"/>
<path d="M60.7969 88.1152C61.4615 88.1297 62.012 87.6028 62.0261 86.9386C62.0406 86.2741 61.5141 85.724 60.8495 85.7095L54.4994 85.5706C53.8805 85.5571 53.3373 86.0366 53.2762 86.6535C53.2074 87.3416 53.7549 87.9612 54.4468 87.9763L60.7969 88.1152Z" fill="#FCB408"/>
<path d="M61.3348 14.7702C61.3489 14.106 60.822 13.5555 60.1583 13.541L45.6434 13.224C44.9792 13.2091 44.4287 13.736 44.4147 14.4002C44.4003 15.0551 44.9359 15.6146 45.5912 15.6293L60.1057 15.9467C60.7698 15.9608 61.3199 15.4343 61.3348 14.7702Z" fill="#FCB408"/>
<path d="M61.1763 22.0273C61.1908 21.3627 60.6643 20.8127 60.0002 20.7986L50.9283 20.6002C50.309 20.5862 49.7666 21.0658 49.7052 21.6822C49.6368 22.3707 50.1838 22.9899 50.8757 23.005L59.9471 23.2039C60.6117 23.2184 61.1622 22.6915 61.1763 22.0273Z" fill="#FCB408"/>
<path d="M54.076 29.1335C54.0621 29.7888 54.5972 30.3479 55.2526 30.3627L61.6027 30.5015C62.2668 30.5156 62.8169 29.9891 62.8319 29.325C62.8459 28.6608 62.3194 28.1108 61.6553 28.0958L55.3052 27.9569C54.641 27.9428 54.091 28.4694 54.076 29.1335Z" fill="#FCB408"/>
</g>
<defs>
<clipPath id="clip0">
<rect width="81.6028" height="81.6028" fill="white" transform="translate(58.9492) rotate(46.2527)"/>
</clipPath>
</defs>
</svg>
